<?xml version="1.0" encoding="UTF-8"?>
<svg width="30px" height="30px" viewBox="0 0 30 30" version="1.1" xmlns="http://www.w3.org/2000/svg" xmlns:xlink="http://www.w3.org/1999/xlink">
    <title>speech-lght</title>
    <g id="Symbols" stroke="none" stroke-width="1" fill="none" fill-rule="evenodd">
        <g id="Text-to-speech-btn" transform="translate(-15, -15)" fill="#FFFFFF" fill-rule="nonzero">
            <path d="M33.1154024,41.241375 L33.1154024,40.0125 C35.2903996,39.2548 37.0456849,37.959125 38.3812583,36.125475 C39.7168316,34.291825 40.3846183,32.2375 40.3846183,29.9625 C40.3846183,27.6875 39.7182691,25.626925 38.3855708,23.780775 C37.0528974,21.934625 35.2961746,20.6452 33.1154024,19.9125 L33.1154024,18.683625 C35.6000242,19.4798 37.6250217,20.9091375 39.1903948,22.9716375 C40.7557928,25.0341375 41.5384918,27.364425 41.5384918,29.9625 C41.5384918,32.560575 40.7557928,34.8908625 39.1903948,36.9533625 C37.6250217,39.0158625 35.6000242,40.4452 33.1154024,41.241375 Z M28.96157,38.365425 L23.5961893,33 L18.4615457,33 L18.4615457,27 L23.5961893,27 L28.96157,21.634575 L28.96157,38.365425 Z M32.7692403,35.0884875 L32.7692403,24.845175 C33.7211641,25.327875 34.4495257,26.0365375 34.9543251,26.9711625 C35.4591494,27.9057625 35.7115616,28.915375 35.7115616,30 C35.7115616,31.07885 35.4528994,32.0759625 34.9355751,32.9913375 C34.4182757,33.9067375 33.6961641,34.6057875 32.7692403,35.0884875 Z M27.8076965,35.4721125 L27.8076965,24.53655 L24.1183011,28.1538375 L19.6154192,28.1538375 L19.6154192,31.8461625 L24.1183011,31.8461625 L27.8076965,35.4721125 Z M15,22.3730625 L15,15 L22.3730908,15 L22.3730908,16.1538375 L16.1538736,16.1538375 L16.1538736,22.3730625 L15,22.3730625 L15,22.3730625 Z M37.6269467,45 L37.6269467,43.8461625 L43.8461639,43.8461625 L43.8461639,37.6269375 L45,37.6269375 L45,45 L37.6269467,45 Z" id="speech-lght"></path>
        </g>
    </g>
</svg>