<?xml version="1.0" encoding="UTF-8"?>
<svg width="16px" height="21px" viewBox="0 0 16 21" version="1.1" xmlns="http://www.w3.org/2000/svg" xmlns:xlink="http://www.w3.org/1999/xlink">
    <title>Shape Copy</title>
    <g id="Website-Prototype" stroke="none" stroke-width="1" fill="none" fill-rule="evenodd">
        <g id="Index" transform="translate(-553, -796)" fill="#FFFFFF" fill-rule="nonzero">
            <g id="Group-53" transform="translate(122, 421)">
                <g id="Group-52" transform="translate(0, 353)">
                    <g id="Group-20" transform="translate(211, 0)">
                        <g id="Group-21" transform="translate(30, 20.4181)">
                            <path d="M190.8448,19.2089281 C190.6144,19.2089281 190.416,19.1275993 190.2496,18.9649415 C190.0832,18.8023005 190,18.6083631 190,18.3831293 C190,18.1579122 190.0832,17.9641998 190.2496,17.8019921 C190.416,17.6397844 190.6144,17.5586806 190.8448,17.5586806 L191.654144,17.5586806 L191.654144,9.58440957 C191.654144,8.14446026 192.120201,6.86190123 193.052314,5.73673246 C193.98441,4.61154703 195.168572,3.88547146 196.6048,3.55850575 L196.6048,3.21230383 C196.6048,2.83724757 196.739268,2.51844976 197.008205,2.25591038 C197.277141,1.993371 197.603703,1.86210131 197.987891,1.86210131 C198.372096,1.86210131 198.698428,1.993371 198.966886,2.25591038 C199.235362,2.51844976 199.3696,2.83724757 199.3696,3.21230383 L199.3696,3.55850575 C200.805828,3.88547146 201.994257,4.60572116 202.934886,5.71925484 C203.875533,6.83278853 204.345856,8.12117344 204.345856,9.58440957 L204.345856,17.5586806 L205.1552,17.5586806 C205.3856,17.5586806 205.584,17.6400095 205.7504,17.8026672 C205.9168,17.9653249 206,18.1592624 206,18.3844795 C206,18.6097133 205.9168,18.8034256 205.7504,18.9656166 C205.584,19.1278243 205.3856,19.2089281 205.1552,19.2089281 L190.8448,19.2089281 Z M197.982797,22.1247655 C197.442227,22.1247655 196.980924,21.9371873 196.598886,21.5620311 C196.216866,21.1868748 196.025856,20.7358905 196.025856,20.2090781 L199.948544,20.2090781 C199.948544,20.7399244 199.756066,21.1919172 199.37111,21.5650565 C198.986155,21.9381958 198.523383,22.1247655 197.982797,22.1247655 Z M193.343744,17.5586806 L202.656256,17.5586806 L202.656256,9.58440957 C202.656256,8.31883642 202.201335,7.24655892 201.291494,6.36757708 C200.38167,5.48861191 199.279556,5.04912933 197.985152,5.04912933 C196.690765,5.04912933 195.5936,5.48861191 194.693658,6.36757708 C193.793715,7.24655892 193.343744,8.31883642 193.343744,9.58440957 L193.343744,17.5586806 Z" id="Shape-Copy"></path>
                        </g>
                    </g>
                </g>
            </g>
        </g>
    </g>
</svg>