<?xml version="1.0" encoding="UTF-8"?>
<svg width="13px" height="25px" viewBox="0 0 13 25" version="1.1" xmlns="http://www.w3.org/2000/svg" xmlns:xlink="http://www.w3.org/1999/xlink">
    <title>Path Copy</title>
    <g id="Website-Prototype" stroke="none" stroke-width="1" fill="none" fill-rule="evenodd">
        <g id="Index_search-open" transform="translate(-694, -867)" fill="#FFFFFF" fill-rule="nonzero">
            <g id="Group-20" transform="translate(496, 846)">
                <g id="Group-21" transform="translate(30, 18)">
                    <path d="M182.728397,16.7782492 L163.275626,16.7782492 C162.91366,16.7782492 162.610571,16.6569109 162.36636,16.4142343 C162.12212,16.1715578 162,15.8703741 162,15.5106833 C162,15.1509924 162.12212,14.8498087 162.36636,14.6071322 C162.610571,14.3644556 162.91366,14.2431174 163.275626,14.2431174 L182.728397,14.2431174 L179.653755,11.1617732 C179.400813,10.9104488 179.275986,10.6163074 179.279274,10.279349 C179.282534,9.94241871 179.416092,9.64286882 179.679948,9.38069928 C179.943776,9.13582556 180.246865,9.00906475 180.589214,9.00041684 C180.931536,8.99174077 181.225894,9.11850158 181.472288,9.38069928 L186.538819,14.4413713 C186.846273,14.746893 187,15.1033303 187,15.5106833 C187,15.9180362 186.846273,16.2744735 186.538819,16.5799952 L181.446137,21.6406672 C181.210657,21.8746959 180.91902,21.9944144 180.571228,21.9998229 C180.223436,22.0052595 179.917612,21.885541 179.653755,21.6406672 C179.389928,21.3784977 179.258014,21.077314 179.258014,20.7371162 C179.258014,20.3969465 179.389928,20.0957628 179.653755,19.8335651 L182.728397,16.7782492 Z" id="Path-Copy" transform="translate(174.5, 15.5) rotate(90) translate(-174.5, -15.5)"></path>
                </g>
            </g>
        </g>
    </g>
</svg>