<?xml version="1.0" encoding="UTF-8"?>
<svg width="29px" height="29px" viewBox="0 0 29 29" version="1.1" xmlns="http://www.w3.org/2000/svg" xmlns:xlink="http://www.w3.org/1999/xlink">
    <title>Shape Copy 3</title>
    <g id="Website-v3" stroke="none" stroke-width="1" fill="none" fill-rule="evenodd">
        <g id="Important-Notice-Copy" transform="translate(-1771, -1092)" fill="#999999" fill-rule="nonzero">
            <g id="Group-11-Copy-4" transform="translate(120, 1079)">
                <g id="Group-9" transform="translate(0, 13)">
                    <path d="M1665.46052,21.1721841 C1665.24988,21.1721841 1665.04426,21.1323987 1664.84365,21.052828 C1664.64305,20.9732268 1664.47442,20.845932 1664.33778,20.6709438 L1657.88936,14.2219085 C1657.62348,13.9765273 1657.49102,13.6670245 1657.492,13.2934001 C1657.49298,12.9197758 1657.64672,12.5927283 1657.95323,12.3122576 C1658.20712,12.0346015 1658.51768,11.9063584 1658.88491,11.9275283 C1659.25213,11.9486982 1659.58148,12.0769413 1659.87293,12.3122576 L1664.12956,16.6434458 L1664.12956,1.31663348 C1664.12956,0.959070116 1664.2634,0.650240361 1664.53109,0.390144217 C1664.79878,0.130048072 1665.11701,0 1665.4858,0 C1665.85462,0 1666.16726,0.130048072 1666.42372,0.390144217 C1666.68021,0.650240361 1666.80846,0.959070116 1666.80846,1.31663348 L1666.80846,16.6434458 L1671.13919,12.3122576 C1671.39488,12.0769413 1671.70293,11.9639944 1672.06334,11.9734168 C1672.42374,11.9828392 1672.74876,12.1052086 1673.03838,12.340525 C1673.30307,12.6203226 1673.43272,12.9497104 1673.42734,13.3286884 C1673.42192,13.7076664 1673.28627,14.0301098 1673.02039,14.2960185 L1666.60092,20.6702095 C1666.46382,20.8456873 1666.29215,20.9732268 1666.08592,21.052828 C1665.87966,21.1323987 1665.67119,21.1721841 1665.46052,21.1721841 Z M1654.24383,29 C1653.37952,29 1652.62281,28.6754268 1651.97371,28.0262804 C1651.32457,27.3771646 1651,26.620444 1651,25.7561187 L1651,21.3228036 C1651,20.965253 1651.13385,20.6564343 1651.40155,20.3963474 C1651.66925,20.1362606 1651.98752,20.0062172 1652.35635,20.0062172 C1652.72515,20.0062172 1653.03781,20.1362606 1653.29431,20.3963474 C1653.55078,20.6564343 1653.67902,20.965253 1653.67902,21.3228036 L1653.67902,25.7561187 C1653.67902,25.8973279 1653.73785,26.0267748 1653.8555,26.1444594 C1653.97318,26.2621133 1654.10263,26.3209403 1654.24383,26.3209403 L1676.75617,26.3209403 C1676.89737,26.3209403 1677.02682,26.2621133 1677.1445,26.1444594 C1677.26215,26.0267748 1677.32098,25.8973279 1677.32098,25.7561187 L1677.32098,21.3228036 C1677.32098,20.965253 1677.45483,20.6564343 1677.72253,20.3963474 C1677.99023,20.1362606 1678.30848,20.0062172 1678.67728,20.0062172 C1679.04612,20.0062172 1679.35877,20.1362606 1679.61524,20.3963474 C1679.87175,20.6564343 1680,20.965253 1680,21.3228036 L1680,25.7561187 C1680,26.620444 1679.67543,27.3771646 1679.02629,28.0262804 C1678.37719,28.6754268 1677.62048,29 1676.75617,29 L1654.24383,29 Z" id="Shape-Copy-3"></path>
                </g>
            </g>
        </g>
    </g>
</svg>