<?xml version="1.0" encoding="UTF-8"?>
<svg width="40px" height="20px" viewBox="0 0 40 20" version="1.1" xmlns="http://www.w3.org/2000/svg" xmlns:xlink="http://www.w3.org/1999/xlink">
    <title>Shape</title>
    <g id="Website-v3" stroke="none" stroke-width="1" fill="none" fill-rule="evenodd">
        <g id="Important-Notice-Copy" transform="translate(-1120, -1218)" fill="#21903C" fill-rule="nonzero">
            <g id="Group-11" transform="translate(120, 738)">
                <path d="M1017.9807,499.4537 L1009.7269,499.4537 C1007.0358,499.4537 1004.74188,498.504717 1002.84515,496.60675 C1000.94838,494.708783 1000,492.413367 1000,489.7205 C1000,487.027667 1000.94838,484.734367 1002.84515,482.8406 C1004.74188,480.946867 1007.0358,480 1009.7269,480 L1017.9807,480 L1017.9807,482.91915 L1009.7269,482.91915 C1007.83373,482.91915 1006.22582,483.579333 1004.90315,484.8997 C1003.58052,486.220067 1002.9192,487.8252 1002.9192,489.7151 C1002.9192,491.604967 1003.58052,493.214 1004.90315,494.5422 C1006.22582,495.870433 1007.83373,496.53455 1009.7269,496.53455 L1017.9807,496.53455 L1017.9807,499.4537 L1017.9807,499.4537 Z M1012.0423,491.16145 L1012.0423,488.24225 L1027.57685,488.24225 L1027.57685,491.16145 L1012.0423,491.16145 Z M1021.6192,499.4537 L1021.6192,496.53455 L1029.873,496.53455 C1031.76617,496.53455 1033.37408,495.874367 1034.69675,494.554 C1036.01938,493.233633 1036.6807,491.6285 1036.6807,489.7386 C1036.6807,487.848733 1036.01938,486.2397 1034.69675,484.9115 C1033.37408,483.583267 1031.76617,482.91915 1029.873,482.91915 L1021.6192,482.91915 L1021.6192,480 L1029.873,480 C1032.5641,480 1034.85802,480.948983 1036.75475,482.84695 C1038.65152,484.744917 1039.5999,487.040333 1039.5999,489.7332 C1039.5999,492.426033 1038.65152,494.719333 1036.75475,496.6131 C1034.85802,498.506833 1032.5641,499.4537 1029.873,499.4537 L1021.6192,499.4537 Z" id="Shape"></path>
            </g>
        </g>
    </g>
</svg>