<?xml version="1.0" encoding="UTF-8"?>
<svg width="20px" height="10px" viewBox="0 0 20 10" version="1.1" xmlns="http://www.w3.org/2000/svg" xmlns:xlink="http://www.w3.org/1999/xlink">
    <title>Path</title>
    <g id="Website-Prototype" stroke="none" stroke-width="1" fill="none" fill-rule="evenodd">
        <g id="Index_msg-open" transform="translate(-490, -991)" fill="#FFFFFF" fill-rule="nonzero">
            <g id="Group-40" transform="translate(410, 81)">
                <g id="Group-6" transform="translate(50, 889)">
                    <g id="Group-39" transform="translate(30, 14)">
                        <path d="M16.5827173,12.9832686 L1.02050073,12.9832686 C0.730927975,12.9832686 0.488457003,12.8899314 0.293087808,12.7032572 C0.0976959361,12.5165829 0,12.2849032 0,12.0082179 C0,11.7315326 0.0976959361,11.4998529 0.293087808,11.3131786 C0.488457003,11.1265043 0.730927975,11.0331672 1.02050073,11.0331672 L16.5827173,11.0331672 L14.1230044,8.66290249 C13.9206504,8.469576 13.8207887,8.24331336 13.8234194,7.98411458 C13.8260273,7.72493747 13.9328737,7.49451448 14.1439586,7.2928456 C14.3550209,7.1044812 14.5974918,7.00697288 14.8713716,7.00032065 C15.1452286,6.99364674 15.3807148,7.09115506 15.5778302,7.2928456 L19.631055,11.1856702 C19.8770183,11.4206869 20,11.6948695 20,12.0082179 C20,12.3215663 19.8770183,12.5957489 19.631055,12.8307656 L15.5569099,16.7235902 C15.3685255,16.9036122 15.1352163,16.9957034 14.8569825,16.9998638 C14.5787486,17.0040458 14.3340893,16.9119546 14.1230044,16.7235902 C13.9119421,16.5219213 13.806411,16.2902415 13.806411,16.0285509 C13.806411,15.7668819 13.9119421,15.5352021 14.1230044,15.3335116 L16.5827173,12.9832686 Z" id="Path" transform="translate(10, 12) scale(-1, 1) translate(-10, -12)"></path>
                    </g>
                </g>
            </g>
        </g>
    </g>
</svg>