<?xml version="1.0" encoding="UTF-8"?>
<svg width="25px" height="13px" viewBox="0 0 25 13" version="1.1" xmlns="http://www.w3.org/2000/svg" xmlns:xlink="http://www.w3.org/1999/xlink">
    <title>Path</title>
    <g id="Website-Prototype" stroke="none" stroke-width="1" fill="none" fill-rule="evenodd">
        <g id="department" transform="translate(-427, -603)" fill="#303030" fill-rule="nonzero">
            <g id="Group-12" transform="translate(120, 579)">
                <g id="Group-20-Copy-5" transform="translate(277, 0)">
                    <path d="M50.7283966,31.7782492 L31.2756259,31.7782492 C30.91366,31.7782492 30.6105713,31.6569109 30.3663598,31.4142343 C30.1221199,31.1715578 30,30.8703741 30,30.5106833 C30,30.1509924 30.1221199,29.8498087 30.3663598,29.6071322 C30.6105713,29.3644556 30.91366,29.2431174 31.2756259,29.2431174 L50.7283966,29.2431174 L47.6537554,26.1617732 C47.400813,25.9104488 47.2759859,25.6163074 47.2792742,25.279349 C47.2825341,24.9424187 47.4160922,24.6428688 47.6799483,24.3806993 C47.9437761,24.1358256 48.2468648,24.0090647 48.5892144,24.0004168 C48.9315357,23.9917408 49.2258935,24.1185016 49.4722877,24.3806993 L54.5388187,29.4413713 C54.8462729,29.746893 55,30.1033303 55,30.5106833 C55,30.9180362 54.8462729,31.2744735 54.5388187,31.5799952 L49.4461374,36.6406672 C49.2106569,36.8746959 48.9190204,36.9944144 48.5712281,36.9998229 C48.2234358,37.0052595 47.9176116,36.885541 47.6537554,36.6406672 C47.3899277,36.3784977 47.2580138,36.077314 47.2580138,35.7371162 C47.2580138,35.3969465 47.3899277,35.0957628 47.6537554,34.8335651 L50.7283966,31.7782492 Z" id="Path" transform="translate(42.5, 30.5) scale(-1, 1) translate(-42.5, -30.5)"></path>
                </g>
            </g>
        </g>
    </g>
</svg>