<?xml version="1.0" encoding="UTF-8"?>
<svg width="16px" height="20px" viewBox="0 0 16 20" version="1.1" xmlns="http://www.w3.org/2000/svg" xmlns:xlink="http://www.w3.org/1999/xlink">
    <title>Shape</title>
    <g id="Website-v3" stroke="none" stroke-width="1" fill="none" fill-rule="evenodd">
        <g id="Index" transform="translate(-1640, -111)" fill="#303030" fill-rule="nonzero">
            <g id="Group-2" transform="translate(0, 60)">
                <g id="Text-to-speech-btn-Copy" transform="translate(1625, 38)">
                    <path d="M15.816,30.1219605 C15.5934545,30.1219605 15.4018182,30.0416859 15.2410909,29.8811367 C15.0803636,29.720604 15,29.5291806 15,29.3068665 C15,29.0845689 15.0803636,28.8933676 15.2410909,28.7332626 C15.4018182,28.5731576 15.5934545,28.4931051 15.816,28.4931051 L16.5977527,28.4931051 L16.5977527,20.6222043 C16.5977527,19.200921 17.047921,17.9349877 17.9482575,16.8244044 C18.8485775,15.7138048 19.9923704,14.9971413 21.3796364,14.674414 L21.3796364,14.3326999 C21.3796364,13.9625055 21.5095205,13.6478402 21.7692887,13.3887041 C22.029057,13.129568 22.3444863,13 22.7155767,13 C23.0866836,13 23.4018904,13.129568 23.6611971,13.3887041 C23.9205202,13.6478402 24.0501818,13.9625055 24.0501818,14.3326999 L24.0501818,14.674414 C25.4374478,14.9971413 26.5853619,15.7080544 27.4939244,16.8071534 C28.4025033,17.9062524 28.8567927,19.177936 28.8567927,20.6222043 L28.8567927,28.4931051 L29.6385455,28.4931051 C29.8610909,28.4931051 30.0527273,28.5733797 30.2134545,28.7339289 C30.3741818,28.8944781 30.4545455,29.0859016 30.4545455,29.3081992 C30.4545455,29.5305133 30.3741818,29.7217146 30.2134545,29.8818031 C30.0527273,30.0419081 29.8610909,30.1219605 29.6385455,30.1219605 L15.816,30.1219605 Z M22.710656,33 C22.1885149,33 21.7429377,32.8148534 21.3739244,32.4445603 C21.0049275,32.0742672 20.8204291,31.629129 20.8204291,31.1091457 L24.6093891,31.1091457 C24.6093891,31.6331106 24.423473,32.0792442 24.0516407,32.4475465 C23.6798085,32.8158488 23.2328136,33 22.710656,33 Z M18.2297527,28.4931051 L27.2247927,28.4931051 L27.2247927,20.6222043 C27.2247927,19.3730367 26.7853808,18.3146591 25.9065571,17.4470715 C25.0277498,16.5795003 23.9632078,16.1457147 22.7129309,16.1457147 C21.4626705,16.1457147 20.4029091,16.5795003 19.5336465,17.4470715 C18.664384,18.3146591 18.2297527,19.3730367 18.2297527,20.6222043 L18.2297527,28.4931051 Z" id="Shape"></path>
                </g>
            </g>
        </g>
    </g>
</svg>