<?xml version="1.0" encoding="UTF-8"?>
<svg width="20px" height="10px" viewBox="0 0 20 10" version="1.1" xmlns="http://www.w3.org/2000/svg" xmlns:xlink="http://www.w3.org/1999/xlink">
    <title>Path</title>
    <g id="Website-v3" stroke="none" stroke-width="1" fill="none" fill-rule="evenodd">
        <g id="Initiatives" transform="translate(-421, -1089)" fill="#21903C" fill-rule="nonzero">
            <g id="Group-5" transform="translate(0, 639)">
                <g id="Infrastructure-card" transform="translate(120, 75)">
                    <g id="Group-6" transform="translate(189, 355)">
                        <path d="M128.582717,25.9832686 L113.020501,25.9832686 C112.730928,25.9832686 112.488457,25.8899314 112.293088,25.7032572 C112.097696,25.5165829 112,25.2849032 112,25.0082179 C112,24.7315326 112.097696,24.4998529 112.293088,24.3131786 C112.488457,24.1265043 112.730928,24.0331672 113.020501,24.0331672 L128.582717,24.0331672 L126.123004,21.6629025 C125.92065,21.469576 125.820789,21.2433134 125.823419,20.9841146 C125.826027,20.7249375 125.932874,20.4945145 126.143959,20.2928456 C126.355021,20.1044812 126.597492,20.0069729 126.871372,20.0003206 C127.145229,19.9936467 127.380715,20.0911551 127.57783,20.2928456 L131.631055,24.1856702 C131.877018,24.4206869 132,24.6948695 132,25.0082179 C132,25.3215663 131.877018,25.5957489 131.631055,25.8307656 L127.55691,29.7235902 C127.368525,29.9036122 127.135216,29.9957034 126.856982,29.9998638 C126.578749,30.0040458 126.334089,29.9119546 126.123004,29.7235902 C125.911942,29.5219213 125.806411,29.2902415 125.806411,29.0285509 C125.806411,28.7668819 125.911942,28.5352021 126.123004,28.3335116 L128.582717,25.9832686 Z" id="Path"></path>
                    </g>
                </g>
            </g>
        </g>
    </g>
</svg>