<?xml version="1.0" encoding="UTF-8"?>
<svg width="19px" height="10px" viewBox="0 0 19 10" version="1.1" xmlns="http://www.w3.org/2000/svg" xmlns:xlink="http://www.w3.org/1999/xlink">
    <title>Path</title>
    <g id="Website-Prototype" stroke="none" stroke-width="1" fill="none" fill-rule="evenodd">
        <g id="Index_search-open" transform="translate(-265, -2494)" fill="#FFFFFF" fill-rule="nonzero">
            <g id="Group-40" transform="translate(0, 1880)">
                <g id="Group-43" transform="translate(120, 100)">
                    <g id="Group-7-Copy" transform="translate(0, 52)">
                        <g id="Group-6" transform="translate(0, 437)">
                            <path d="M160.753581,30.9832686 L145.969476,30.9832686 C145.694382,30.9832686 145.464034,30.8899314 145.278433,30.7032572 C145.092811,30.5165829 145,30.2849032 145,30.0082179 C145,29.7315326 145.092811,29.4998529 145.278433,29.3131786 C145.464034,29.1265043 145.694382,29.0331672 145.969476,29.0331672 L160.753581,29.0331672 L158.416854,26.6629025 C158.224618,26.469576 158.129749,26.2433134 158.132248,25.9841146 C158.134726,25.7249375 158.23623,25.4945145 158.436761,25.2928456 C158.63727,25.1044812 158.867617,25.0069729 159.127803,25.0003206 C159.387967,24.9936467 159.611679,25.0911551 159.798939,25.2928456 L163.649502,29.1856702 C163.883167,29.4206869 164,29.6948695 164,30.0082179 C164,30.3215663 163.883167,30.5957489 163.649502,30.8307656 L159.779064,34.7235902 C159.600099,34.9036122 159.378456,34.9957034 159.114133,34.9998638 C158.849811,35.0040458 158.617385,34.9119546 158.416854,34.7235902 C158.216345,34.5219213 158.11609,34.2902415 158.11609,34.0285509 C158.11609,33.7668819 158.216345,33.5352021 158.416854,33.3335116 L160.753581,30.9832686 Z" id="Path"></path>
                        </g>
                    </g>
                </g>
            </g>
        </g>
    </g>
</svg>