<?xml version="1.0" encoding="UTF-8"?>
<svg width="20px" height="20px" viewBox="0 0 20 20" version="1.1" xmlns="http://www.w3.org/2000/svg" xmlns:xlink="http://www.w3.org/1999/xlink">
    <title>search_FILL0_wght200_GRAD200_opsz24</title>
    <g id="Website-v3" stroke="none" stroke-width="1" fill="none" fill-rule="evenodd">
        <g id="Index" transform="translate(-1767, -110)" fill="#303030" fill-rule="nonzero">
            <g id="Group-2" transform="translate(0, 60)">
                <g id="Group-37" transform="translate(1755, 38)">
                    <g id="search_FILL0_wght200_GRAD200_opsz24" transform="translate(12, 12)">
                        <path d="M7.27418502,14.5825031 C5.24572484,14.5825031 3.52624563,13.8755994 2.11574738,12.4617918 C0.705249125,11.0479843 -4.08213791e-16,9.32447088 -4.08213791e-16,7.29125157 C-4.08213791e-16,5.25803226 0.705249125,3.53451883 2.11574738,2.1207113 C3.52624563,0.706903766 5.24572484,0 7.27418502,0 C9.30266436,0 11.0221436,0.706903766 12.4326227,2.1207113 C13.8431209,3.53451883 14.54837,5.25803226 14.54837,7.29125157 C14.54837,8.11073552 14.4213172,8.91398029 14.1672115,9.70098587 C13.9131058,10.4879914 13.556249,11.1664766 13.0966411,11.7364414 L19.7123517,18.3676449 C19.8964821,18.5522265 19.9922338,18.7707645 19.9996066,19.0232589 C20.0069604,19.2757341 19.9112087,19.5016431 19.7123517,19.7009859 C19.5134756,19.9003286 19.2917722,20 19.0472417,20 C18.802692,20 18.5809886,19.9003286 18.3821316,19.7009859 L11.7951466,13.0985753 C11.2206367,13.5695886 10.5168622,13.9346632 9.68382291,14.1937992 C8.85078364,14.4529351 8.04757102,14.5825031 7.27418502,14.5825031 Z M7.27418502,12.6821726 C8.79885753,12.6821726 10.0764046,12.1657434 11.1068263,11.1328849 C12.1372672,10.1000265 12.6524876,8.81948204 12.6524876,7.29125157 C12.6524876,5.7630211 12.1372672,4.48247665 11.1068263,3.44961821 C10.0764046,2.41675976 8.79885753,1.90033054 7.27418502,1.90033054 C5.74953167,1.90033054 4.47198457,2.41675976 3.44154373,3.44961821 C2.41112203,4.48247665 1.89591119,5.7630211 1.89591119,7.29125157 C1.89591119,8.81948204 2.41112203,10.1000265 3.44154373,11.1328849 C4.47198457,12.1657434 5.74953167,12.6821726 7.27418502,12.6821726 Z" id="Shape"></path>
                    </g>
                </g>
            </g>
        </g>
    </g>
</svg>