<?xml version="1.0" encoding="UTF-8"?>
<svg width="20px" height="18px" viewBox="0 0 20 18" version="1.1" xmlns="http://www.w3.org/2000/svg" xmlns:xlink="http://www.w3.org/1999/xlink">
    <title>Shape</title>
    <g id="Website-Prototype" stroke="none" stroke-width="1" fill="none" fill-rule="evenodd">
        <g id="Index" transform="translate(-120, -6163)" fill="#21903C" fill-rule="nonzero">
            <g id="Group-47" transform="translate(0, 5756)">
                <g id="Group-14" transform="translate(120, 404)">
                    <path d="M10.1417109,21 C9.91769277,21 9.73011332,20.9239762 9.57897258,20.7719287 C9.42783183,20.6198989 9.35226145,20.431216 9.35226145,20.20588 C9.35226145,19.9805441 9.42783183,19.7918612 9.57897258,19.6398313 C9.73011332,19.4878014 9.91769277,19.4117865 10.1417109,19.4117865 L17.0445185,19.4117865 C17.1322556,19.4117865 17.2081769,19.3846364 17.2722823,19.3303363 C17.3363877,19.2760361 17.3684404,19.2047594 17.3684404,19.1165062 L17.3684404,11.7108344 C17.3684404,9.68685202 16.6484649,7.98289113 15.2085137,6.59895176 C13.7685625,5.21503004 12.0323913,4.52306919 10,4.52306919 C7.96760869,4.52306919 6.23143745,5.21503004 4.79148629,6.59895176 C3.35153514,7.98289113 2.63155956,9.68685202 2.63155956,11.7108344 L2.63155956,17.1515887 C2.63155956,17.3769246 2.55598918,17.5656075 2.40484843,17.7176374 C2.25370769,17.8696673 2.06612824,17.9456822 1.84211011,17.9456822 C1.33738948,17.9456822 0.904195362,17.7688758 0.542527743,17.415263 C0.180842581,17.0616502 0,16.6309989 0,16.1233092 L0,14.0667502 C0,13.7233021 0.0971669224,13.4087071 0.291500767,13.1229651 C0.485834612,12.8372231 0.739545806,12.6074753 1.05263435,12.4337219 L1.10123974,11.0816797 C1.18759084,9.92919979 1.48515303,8.86155842 1.9939263,7.87875553 C2.50269957,6.89593499 3.15519251,6.04038541 3.95140514,5.3121068 C4.7476353,4.58382819 5.66666404,4.01641181 6.70849134,3.60985768 C7.75033619,3.20328589 8.84750574,3 10,3 C11.1524943,3 12.2469621,3.20328589 13.2834034,3.60985768 C14.3198447,4.01641181 15.2388734,4.58111936 16.0404896,5.30398031 C16.8421057,6.02682361 17.4945987,6.8796467 17.9979684,7.8624496 C18.5013382,8.84525249 18.8016021,9.91290269 18.8987603,11.0654002 L18.9473657,12.3909717 C19.2536998,12.5362075 19.505718,12.7438963 19.7034203,13.0140383 C19.9011401,13.2841626 20,13.5855135 20,13.9180909 L20,16.2821332 C20,16.6147106 19.9011401,16.9160615 19.7034203,17.1861858 C19.505718,17.4563278 19.2536998,17.6640255 18.9473657,17.8092789 L18.9473657,19.1165062 C18.9473657,19.6377842 18.7614617,20.0820149 18.3896537,20.4491984 C18.0178632,20.8163995 17.5694848,21 17.0445185,21 L10.1417109,21 Z M7.04454485,13.8733026 C6.78678979,13.8733026 6.56715763,13.7854023 6.38564838,13.6096018 C6.20413913,13.4338189 6.11338451,13.2162918 6.11338451,12.9570205 C6.11338451,12.6977315 6.20413913,12.4785014 6.38564838,12.2993303 C6.56715763,12.1201415 6.78678979,12.0305471 7.04454485,12.0305471 C7.30229992,12.0305471 7.52193208,12.1201415 7.70344132,12.2993303 C7.88495057,12.4785014 7.9757052,12.6977315 7.9757052,12.9570205 C7.9757052,13.2162918 7.88495057,13.4338189 7.70344132,13.6096018 C7.52193208,13.7854023 7.30229992,13.8733026 7.04454485,13.8733026 Z M12.9554551,13.8733026 C12.6977001,13.8733026 12.4780679,13.7854023 12.2965587,13.6096018 C12.1150494,13.4338189 12.0242948,13.2162918 12.0242948,12.9570205 C12.0242948,12.6977315 12.1150494,12.4785014 12.2965587,12.2993303 C12.4780679,12.1201415 12.6977001,12.0305471 12.9554551,12.0305471 C13.2132102,12.0305471 13.4328424,12.1201415 13.6143516,12.2993303 C13.7958609,12.4785014 13.8866155,12.6977315 13.8866155,12.9570205 C13.8866155,13.2162918 13.7958609,13.4338189 13.6143516,13.6096018 C13.4328424,13.7854023 13.2132102,13.8733026 12.9554551,13.8733026 Z M4.07490546,12.2117389 C3.96558938,10.4836985 4.50000307,9.00508237 5.67814652,7.77589052 C6.85628997,6.54671631 8.3144517,5.93212921 10.0526317,5.93212921 C11.512811,5.93212921 12.8012705,6.38654231 13.9180103,7.29536852 C15.0347325,8.20417707 15.7125326,9.38075406 15.9514104,10.8250995 C14.4561258,10.8074524 13.074552,10.4124306 11.806689,9.64003424 C10.5388084,8.86763785 9.56546377,7.80882003 8.88665496,6.46358078 C8.61944374,7.78031994 8.05938963,8.94434101 7.20649265,9.95564399 C6.35357812,10.966947 5.30971573,11.7189786 4.07490546,12.2117389 Z" id="Shape"></path>
                </g>
            </g>
        </g>
    </g>
</svg>