<?xml version="1.0" encoding="UTF-8"?>
<svg width="20px" height="20px" viewBox="0 0 20 20" version="1.1" xmlns="http://www.w3.org/2000/svg" xmlns:xlink="http://www.w3.org/1999/xlink">
    <title>site</title>
    <g id="Website-Prototype" stroke="none" stroke-width="1" fill="none" fill-rule="evenodd">
        <g id="Index" transform="translate(-120, -6205)" fill="#21903C" fill-rule="nonzero">
            <g id="Group-47" transform="translate(0, 5756)">
                <g id="Group-15" transform="translate(120, 447)">
                    <path d="M9.999975,21.99995 C8.62885201,21.99995 7.33500097,21.7371254 6.11842186,21.2114762 C4.90182521,20.6858446 3.84075489,19.9702655 2.93521091,19.0647391 C2.02968448,18.1591951 1.31410544,17.0981248 0.788473788,15.8815281 C0.262824596,14.664949 0,13.371098 0,11.999975 C0,10.6180625 0.262824596,9.32150974 0.788473788,8.11031659 C1.31410544,6.89912345 2.02968448,5.84075489 2.93521091,4.93521091 C3.84075489,4.02968448 4.90182521,3.31410544 6.11842186,2.78847379 C7.33500097,2.2628246 8.62885201,2 9.999975,2 C11.3818875,2 12.6784403,2.2628246 13.8896334,2.78847379 C15.1008265,3.31410544 16.1591951,4.02968448 17.0647391,4.93521091 C17.9702655,5.84075489 18.6858446,6.89912345 19.2114762,8.11031659 C19.7371254,9.32150974 19.99995,10.6180625 19.99995,11.999975 C19.99995,13.371098 19.7371254,14.664949 19.2114762,15.8815281 C18.6858446,17.0981248 17.9702655,18.1591951 17.0647391,19.0647391 C16.1591951,19.9702655 15.1008265,20.6858446 13.8896334,21.2114762 C12.6784403,21.7371254 11.3818875,21.99995 9.999975,21.99995 Z M9.999975,20.3987656 C10.5370979,19.6862041 10.9891944,18.9675724 11.3562647,18.2428706 C11.7233349,17.5181687 12.022256,16.7259932 12.2530279,15.8663439 L7.74692207,15.8663439 C7.99118526,16.7529932 8.29348355,17.5586687 8.65381693,18.2833706 C9.01413277,19.0080724 9.46285212,19.7132041 9.999975,20.3987656 Z M7.96155368,20.1092919 C7.55804485,19.5303444 7.19569393,18.8721075 6.8745009,18.1345811 C6.55330788,17.3970547 6.30364118,16.6409756 6.12550081,15.8663439 L2.5546056,15.8663439 C3.11062322,16.9594844 3.85624612,17.877853 4.79147431,18.6214496 C5.72672005,19.3650461 6.78341317,19.8609936 7.96155368,20.1092919 Z M12.0383963,20.1092919 C13.2165368,19.8609936 14.2732299,19.3650461 15.2084757,18.6214496 C16.1437039,17.877853 16.8893268,16.9594844 17.4453444,15.8663439 L13.8744492,15.8663439 C13.662572,16.64773 13.3960369,17.4071862 13.0748438,18.1447127 C12.7536508,18.8822391 12.4081683,19.5370988 12.0383963,20.1092919 Z M1.89268446,14.287449 L5.80565866,14.287449 C5.73953584,13.8960805 5.69163233,13.5124752 5.66194811,13.136633 C5.6322639,12.7607733 5.61742179,12.3818873 5.61742179,11.999975 C5.61742179,11.6180627 5.6322639,11.2391767 5.66194811,10.863317 C5.69163233,10.4874748 5.73953584,10.1038695 5.80565866,9.71250101 L1.89268446,9.71250101 C1.79147392,10.0701326 1.71387742,10.4419309 1.65989496,10.8278959 C1.60591249,11.2138609 1.57892126,11.6045539 1.57892126,11.999975 C1.57892126,12.3953961 1.60591249,12.7860891 1.65989496,13.1720541 C1.71387742,13.5580191 1.79147392,13.9298174 1.89268446,14.287449 L1.89268446,14.287449 Z M7.38457992,14.287449 L12.6153701,14.287449 C12.6814929,13.8960805 12.7294052,13.5158436 12.7591069,13.1467383 C12.7887912,12.7776505 12.8036333,12.3953961 12.8036333,11.999975 C12.8036333,11.6045539 12.7887912,11.2222995 12.7591069,10.8532117 C12.7294052,10.4841064 12.6814929,10.1038695 12.6153701,9.71250101 L7.38457992,9.71250101 C7.3184571,10.1038695 7.27054482,10.4841064 7.24084306,10.8532117 C7.21115884,11.2222995 7.19631674,11.6045539 7.19631674,11.999975 C7.19631674,12.3953961 7.21115884,12.7776505 7.24084306,13.1467383 C7.27054482,13.5158436 7.3184571,13.8960805 7.38457992,14.287449 L7.38457992,14.287449 Z M14.1942913,14.287449 L18.1072655,14.287449 C18.2084761,13.9298174 18.2860726,13.5580191 18.340055,13.1720541 C18.3940375,12.7860891 18.4210287,12.3953961 18.4210287,11.999975 C18.4210287,11.6045539 18.3940375,11.2138609 18.340055,10.8278959 C18.2860726,10.4419309 18.2084761,10.0701326 18.1072655,9.71250101 L14.1942913,9.71250101 C14.2604142,10.1038695 14.3083177,10.4874748 14.3380019,10.863317 C14.3676861,11.2391767 14.3825282,11.6180627 14.3825282,11.999975 C14.3825282,12.3818873 14.3676861,12.7607733 14.3380019,13.136633 C14.3083177,13.5124752 14.2604142,13.8960805 14.1942913,14.287449 Z M13.8744492,8.13360607 L17.4453444,8.13360607 C16.8825724,7.02697435 16.1420109,6.1086058 15.2236599,5.37850044 C14.3052914,4.64841263 13.2435368,4.149088 12.0383963,3.88052656 C12.4419051,4.49321085 12.8008789,5.1632548 13.1153175,5.89065841 C13.4297737,6.61806201 13.6828176,7.36571123 13.8744492,8.13360607 Z M7.74692207,8.13360607 L12.2530279,8.13360607 C12.0087647,7.25371122 11.701405,6.44297427 11.3309489,5.70139522 C10.9605102,4.95983372 10.5168523,4.25976346 9.999975,3.60118442 C9.48309774,4.25976346 9.03943979,4.95983372 8.66900114,5.70139522 C8.29854495,6.44297427 7.99118526,7.25371122 7.74692207,8.13360607 Z M2.5546056,8.13360607 L6.12550081,8.13360607 C6.31713241,7.36571123 6.5701763,6.61806201 6.88463248,5.89065841 C7.19907112,5.1632548 7.55804485,4.49321085 7.96155368,3.88052656 C6.74967633,4.149088 5.68623759,4.65010561 4.77123747,5.38357939 C3.85625489,6.11705317 3.1173776,7.03372873 2.5546056,8.13360607 Z" id="site"></path>
                </g>
            </g>
        </g>
    </g>
</svg>