<?xml version="1.0" encoding="UTF-8"?>
<svg width="19px" height="21px" viewBox="0 0 19 21" version="1.1" xmlns="http://www.w3.org/2000/svg" xmlns:xlink="http://www.w3.org/1999/xlink">
    <title>Shape</title>
    <g id="Website-v3" stroke="none" stroke-width="1" fill="none" fill-rule="evenodd">
        <g id="Index" transform="translate(-1703, -110)" fill="#FFFFFF" fill-rule="nonzero">
            <g id="Group-2" transform="translate(0, 60)">
                <g id="Text-to-speech-btn" transform="translate(1690, 38)">
                    <g id="text_to_speech_FILL0_wght200_GRAD200_opsz24" transform="translate(13, 12.5)">
                        <path d="M2.19602679,20 C1.57151488,20 1.04938648,19.7866558 0.629641582,19.3599675 C0.209880527,18.9332956 0,18.4025505 0,17.7677324 L0,2.91871222 C0,2.28389404 0.209880527,1.753149 0.629641582,1.32647709 C1.04938648,0.899788751 1.57151488,0.686444583 2.19602679,0.686444583 L7.87440944,0.686444583 C8.09252168,0.686444583 8.28034056,0.766572846 8.43786607,0.926829371 C8.59539158,1.08706947 8.67415434,1.27814393 8.67415434,1.50005274 C8.67415434,1.72194513 8.59539158,1.91279787 8.43786607,2.07261097 C8.28034056,2.23242407 8.09252168,2.31233063 7.87440944,2.31233063 L2.19602679,2.31233063 C2.02203784,2.31233063 1.87911777,2.36917916 1.76726658,2.48287622 C1.65541539,2.59657328 1.5994898,2.74185195 1.5994898,2.91871222 L1.5994898,17.7677324 C1.5994898,17.9445926 1.65541539,18.0898713 1.76726658,18.2035684 C1.87911777,18.3172654 2.02203784,18.374114 2.19602679,18.374114 L11.9570344,18.374114 C12.1310234,18.374114 12.2739435,18.3172654 12.3857946,18.2035684 C12.4976458,18.0898713 12.5535714,17.9445926 12.5535714,17.7677324 L12.5535714,16.9945743 C12.5535714,16.7728626 12.6323988,16.5819441 12.7900536,16.421819 C12.9477083,16.2616938 13.1356807,16.1816313 13.3539707,16.1816313 C13.5722768,16.1816313 13.760031,16.2616938 13.9172334,16.421819 C14.074452,16.5819441 14.1530612,16.7728626 14.1530612,16.9945743 L14.1530612,17.7677324 C14.1530612,18.4025505 13.9431807,18.9332956 13.5234196,19.3599675 C13.1036747,19.7866558 12.5815463,20 11.9570344,20 L2.19602679,20 Z M4.50765306,15.9106503 C4.37032313,15.9106503 4.25520833,15.8633682 4.16230867,15.768804 C4.06940901,15.6742563 4.02295918,15.5570857 4.02295918,15.4172924 C4.02295918,15.277499 4.06940901,15.1605502 4.16230867,15.0664459 C4.25520833,14.9723251 4.37032313,14.9252648 4.50765306,14.9252648 L9.64540816,14.9252648 C9.7827381,14.9252648 9.89785289,14.9725469 9.99075255,15.067111 C10.0836522,15.1616588 10.130102,15.2788293 10.130102,15.4186227 C10.130102,15.558416 10.0836522,15.6753648 9.99075255,15.7694692 C9.89785289,15.8635899 9.7827381,15.9106503 9.64540816,15.9106503 L4.50765306,15.9106503 Z M4.50765306,13.1818961 C4.37032313,13.1818961 4.25520833,13.1346141 4.16230867,13.0400499 C4.06940901,12.9454857 4.02295918,12.8283152 4.02295918,12.6885383 C4.02295918,12.5487449 4.06940901,12.4317879 4.16230867,12.3376671 C4.25520833,12.2435628 4.37032313,12.1965107 4.50765306,12.1965107 L7.70663265,12.1965107 C7.84396259,12.1965107 7.95907738,12.2437845 8.05197704,12.3383323 C8.1448767,12.4328964 8.19132653,12.5500752 8.19132653,12.6898685 C8.19132653,12.8296455 8.1448767,12.9465943 8.05197704,13.040715 C7.95907738,13.1348358 7.84396259,13.1818961 7.70663265,13.1818961 L4.50765306,13.1818961 Z M11.7575587,11.6337078 L9.0749477,8.90682588 L7.35057653,8.90682588 C7.04794983,8.90682588 6.78928486,8.79842526 6.57458163,8.58162403 C6.35989456,8.3648228 6.25255102,8.10367923 6.25255102,7.79819331 L6.25255102,5.43299717 C6.25255102,5.12751125 6.35989456,4.86643337 6.57458163,4.64976352 C6.78928486,4.4331101 7.04794983,4.32478339 7.35057653,4.32478339 L9.0749477,4.32478339 L11.7575587,1.59792615 C11.9303036,1.42231404 12.1303933,1.38278366 12.3578278,1.47933501 C12.5852623,1.57586994 12.6989796,1.74615276 12.6989796,1.99018348 L12.6989796,11.2414504 C12.6989796,11.4854811 12.5852623,11.655764 12.3578278,11.7522989 C12.1303933,11.8488338 11.9303036,11.8093034 11.7575587,11.6337078 Z M14.0076531,10.0703444 L14.0076531,3.16126485 C14.6961769,3.60848205 15.2156718,4.15266118 15.5661378,4.79380225 C15.9166037,5.43492689 16.0918367,6.04226102 16.0918367,6.61580463 C16.0918367,7.18934825 15.9134936,7.79669059 15.5568074,8.43783166 C15.2001212,9.0789563 14.6837364,9.62312722 14.0076531,10.0703444 Z M17.4005102,6.61580463 C17.4005102,5.60136671 17.1553682,4.62608964 16.6650842,3.68997343 C16.1748002,2.75385722 15.5220145,2.01861185 14.706727,1.4842373 C14.5277619,1.36674651 14.4075255,1.20787773 14.3460179,1.00763098 C14.284494,0.807400651 14.2997134,0.615447559 14.391676,0.431771706 C14.4998112,0.240245614 14.6564077,0.10942748 14.8614656,0.0393173033 C15.0665234,-0.0308092967 15.2585349,-0.00712719899 15.4375,0.110363596 C16.5063146,0.811498212 17.3672683,1.73972312 18.020361,2.89503833 C18.6734537,4.05033711 19,5.28648678 19,6.60348732 C19,7.92050428 18.6774928,9.15255638 18.0324783,10.2996436 C17.3874639,11.4467309 16.5467058,12.3708418 15.5102041,13.0719764 C15.298926,13.1894672 15.086719,13.221369 14.8735829,13.167682 C14.6604469,13.1139949 14.4998112,12.9913801 14.391676,12.7998376 C14.2997134,12.6161617 14.284494,12.4242086 14.3460179,12.2239783 C14.4075255,12.023748 14.5277619,11.8648874 14.706727,11.7473966 C15.5220145,11.2130056 16.1748002,10.477752 16.6650842,9.54163584 C17.1553682,8.60551963 17.4005102,7.63024256 17.4005102,6.61580463 Z" id="Shape"></path>
                    </g>
                </g>
            </g>
        </g>
    </g>
</svg>