<?xml version="1.0" encoding="UTF-8"?>
<svg width="29px" height="29px" viewBox="0 0 29 29" version="1.1" xmlns="http://www.w3.org/2000/svg" xmlns:xlink="http://www.w3.org/1999/xlink">
    <title>Shape</title>
    <g id="Website-v3" stroke="none" stroke-width="1" fill="none" fill-rule="evenodd">
        <g id="Index" transform="translate(-1054, -2239)" fill="#FFFFFF" fill-rule="nonzero">
            <g id="Group-51" transform="translate(0, 1930)">
                <g id="Group-20-Copy" transform="translate(807, 291)">
                    <path d="M261.460519,39.1721841 C261.24988,39.1721841 261.044258,39.1323987 260.843652,39.052828 C260.643047,38.9732268 260.474423,38.845932 260.33778,38.6709438 L253.88936,32.2219085 C253.623477,31.9765273 253.491024,31.6670245 253.491998,31.2934001 C253.492982,30.9197758 253.646724,30.5927283 253.953231,30.3122576 C254.207123,30.0346015 254.517682,29.9063584 254.884908,29.9275283 C255.252134,29.9486982 255.581475,30.0769413 255.872931,30.3122576 L260.129557,34.6434458 L260.129557,19.3166335 C260.129557,18.9590701 260.263402,18.6502404 260.53109,18.3901442 C260.798778,18.1300481 261.117015,18 261.485801,18 C261.854618,18 262.167257,18.1300481 262.423719,18.3901442 C262.680211,18.6502404 262.808457,18.9590701 262.808457,19.3166335 L262.808457,34.6434458 L267.139186,30.3122576 C267.394883,30.0769413 267.702934,29.9639944 268.063339,29.9734168 C268.423743,29.9828392 268.748756,30.1052086 269.038377,30.340525 C269.303067,30.6203226 269.432721,30.9497104 269.427337,31.3286884 C269.421922,31.7076664 269.286274,32.0301098 269.02039,32.2960185 L262.600923,38.6702095 C262.463822,38.8456873 262.292154,38.9732268 262.08592,39.052828 C261.879655,39.1323987 261.671188,39.1721841 261.460519,39.1721841 Z M250.243835,47 C249.379522,47 248.622812,46.6754268 247.973706,46.0262804 C247.324569,45.3771646 247,44.620444 247,43.7561187 L247,39.3228036 C247,38.965253 247.13385,38.6564343 247.40155,38.3963474 C247.669251,38.1362606 247.987517,38.0062172 248.356351,38.0062172 C248.725154,38.0062172 249.037807,38.1362606 249.294311,38.3963474 C249.550784,38.6564343 249.679021,38.965253 249.679021,39.3228036 L249.679021,43.7561187 C249.679021,43.8973279 249.737847,44.0267748 249.8555,44.1444594 C249.973182,44.2621133 250.102627,44.3209403 250.243835,44.3209403 L272.756165,44.3209403 C272.897373,44.3209403 273.026818,44.2621133 273.1445,44.1444594 C273.262153,44.0267748 273.320979,43.8973279 273.320979,43.7561187 L273.320979,39.3228036 C273.320979,38.965253 273.454829,38.6564343 273.722529,38.3963474 C273.990229,38.1362606 274.308481,38.0062172 274.677284,38.0062172 C275.046117,38.0062172 275.358771,38.1362606 275.615244,38.3963474 C275.871748,38.6564343 276,38.965253 276,39.3228036 L276,43.7561187 C276,44.620444 275.675431,45.3771646 275.026294,46.0262804 C274.377188,46.6754268 273.620478,47 272.756165,47 L250.243835,47 Z" id="Shape"></path>
                </g>
            </g>
        </g>
    </g>
</svg>