<?xml version="1.0" encoding="UTF-8"?>
<svg width="2574px" height="1055px" viewBox="0 0 2574 1055" version="1.1" xmlns="http://www.w3.org/2000/svg" xmlns:xlink="http://www.w3.org/1999/xlink">
    <title>HRM</title>
    <g id="Website-Prototype" stroke="none" stroke-width="1" fill="none" fill-rule="evenodd">
        <g id="Artboard" transform="translate(-332, -667)">
            <g id="HRM" transform="translate(332, 667)">
                <g id="Group-6" transform="translate(524, 254)">
                    <rect id="Rectangle" stroke="#303030" stroke-width="2" fill="#FFFFFF" x="1" y="1" width="298" height="118" rx="20"></rect>
                    <text id="DO-apd" font-family="Poppins-SemiBold, Poppins" font-size="16" font-weight="500" fill="#303030">
                        <tspan x="137.984" y="54">DO</tspan>
                        <tspan x="133.672" y="77">APD</tspan>
                    </text>
                </g>
                <g id="Group-6-Copy-2" transform="translate(1864, 254)">
                    <rect id="Rectangle" stroke="#303030" stroke-width="2" fill="#FFFFFF" x="1" y="1" width="298" height="118" rx="20"></rect>
                    <text id="DO-tsw" font-family="Poppins-SemiBold, Poppins" font-size="16" font-weight="500" fill="#303030">
                        <tspan x="137.984" y="54">DO</tspan>
                        <tspan x="132.32" y="77">TSW</tspan>
                    </text>
                </g>
                <g id="Group-6-Copy-3" transform="translate(1520, 505)">
                    <rect id="Rectangle" stroke="#303030" stroke-width="2" fill="#FFFFFF" x="1" y="1" width="298" height="118" rx="20"></rect>
                    <text id="AD-TRAINING" font-family="Poppins-SemiBold, Poppins" font-size="16" font-weight="500" fill="#303030">
                        <tspan x="138.536" y="54">AD</tspan>
                        <tspan x="112.176" y="77">TRAINING</tspan>
                    </text>
                </g>
                <g id="Group-6-Copy-4" transform="translate(2094, 505)">
                    <rect id="Rectangle" stroke="#303030" stroke-width="2" fill="#FFFFFF" x="1" y="1" width="298" height="118" rx="20"></rect>
                    <text id="AD-SW/TRANS" font-family="Poppins-SemiBold, Poppins" font-size="16" font-weight="500" fill="#303030">
                        <tspan x="138.536" y="54">AD</tspan>
                        <tspan x="106.824" y="77">SW/TRANS</tspan>
                    </text>
                </g>
                <g id="Group-6-Copy" transform="translate(1194, 0)">
                    <rect id="Rectangle" stroke="#303030" stroke-width="2" fill="#FFFFFF" x="1" y="1" width="298" height="118" rx="20"></rect>
                    <text id="Director" font-family="Poppins-SemiBold, Poppins" font-size="16" font-weight="500" fill="#303030">
                        <tspan x="110.488" y="66">DIRECTOR</tspan>
                    </text>
                </g>
                <line x1="1343.5498" y1="120" x2="1344" y2="188" id="Line-Copy-8" stroke="#303030" stroke-width="2" stroke-linecap="square"></line>
                <path id="Line-Copy-20" d="M675.543158,184.993401 L675.549779,185.99338 L675.906,239.993 L681.907161,239.953964 L675,254 L667.907467,240.04665 L673.907,240.006 L673.549823,186.00662 L673.543202,185.006642 L675.543158,184.993401 Z" fill="#303030" fill-rule="nonzero"></path>
                <path id="Line-Copy-21" d="M2014.54316,184.993401 L2014.54978,185.99338 L2014.906,239.993 L2020.90716,239.953964 L2014,254 L2006.90747,240.04665 L2012.907,240.006 L2012.54982,186.00662 L2012.5432,185.006642 L2014.54316,184.993401 Z" fill="#303030" fill-rule="nonzero"></path>
                <g id="Group" transform="translate(85, 422)">
                    <g id="Group-5" transform="translate(440, 82)">
                        <rect id="Rectangle-Copy-19" stroke="#303030" stroke-width="2" fill="#FFFFFF" x="1" y="1" width="298" height="118" rx="20"></rect>
                        <text id="AD-(PROMO)" font-family="Poppins-SemiBold, Poppins" font-size="16" font-weight="500" fill="#303030">
                            <tspan x="138.536" y="54">AD</tspan>
                            <tspan x="112.496" y="77">(PROMO)</tspan>
                        </text>
                    </g>
                    <g id="Group-5-Copy" transform="translate(880, 83)">
                        <rect id="Rectangle-Copy-19" stroke="#303030" stroke-width="2" fill="#FFFFFF" x="1" y="1" width="298" height="118" rx="20"></rect>
                        <text id="AD-(DISCIP)" font-family="Poppins-SemiBold, Poppins" font-size="16" font-weight="500" fill="#303030">
                            <tspan x="138.536" y="54">AD</tspan>
                            <tspan x="116.176" y="77">(DISCIP)</tspan>
                        </text>
                    </g>
                    <rect id="Rectangle-Copy-15" stroke="#303030" stroke-width="2" fill="#FFFFFF" x="1" y="83" width="298" height="118" rx="20"></rect>
                    <text id="AD-(APPT)" font-family="Poppins-SemiBold, Poppins" font-size="16" font-weight="500" fill="#303030">
                        <tspan x="138.536" y="136">AD</tspan>
                        <tspan x="122.168" y="159">(APPT)</tspan>
                    </text>
                    <path id="Line-Copy" d="M151.5,1 L151.5,68 L157.5,68 L150.5,82 L143.5,68 L149.5,68 L149.5,1 L151.5,1 Z" fill="#303030" fill-rule="nonzero"></path>
                    <path id="Line-Copy-2" d="M151.5,201 L151.5,248 L157.5,248 L150.5,262 L143.5,248 L149.5,248 L149.5,201 L151.5,201 Z" fill="#303030" fill-rule="nonzero"></path>
                    <path id="Line-Copy-3" d="M591.5,201 L591.5,248 L597.5,248 L590.5,262 L583.5,248 L589.5,248 L589.5,201 L591.5,201 Z" fill="#303030" fill-rule="nonzero"></path>
                    <path id="Line-Copy-4" d="M1031.5,201 L1031.5,248 L1037.5,248 L1030.5,262 L1023.5,248 L1029.5,248 L1029.5,201 L1031.5,201 Z" fill="#303030" fill-rule="nonzero"></path>
                    <path id="Line-Copy-5" d="M1031.5,1 L1031.5,68 L1037.5,68 L1030.5,82 L1023.5,68 L1029.5,68 L1029.5,1 L1031.5,1 Z" fill="#303030" fill-rule="nonzero"></path>
                    <rect id="Rectangle" fill="#303030" x="150" y="0" width="881" height="2"></rect>
                </g>
                <g id="Group-2" transform="translate(0, 733)">
                    <rect id="Rectangle-Copy-45" stroke="#303030" stroke-width="2" fill="#FFFFFF" x="691" y="1" width="198" height="118" rx="20"></rect>
                    <rect id="Rectangle-Copy-44" stroke="#303030" stroke-width="2" fill="#FFFFFF" x="921" y="1" width="198" height="118" rx="20"></rect>
                    <text id="CEO(P)-JSC" font-family="Poppins-SemiBold, Poppins" font-size="16" font-weight="500" fill="#303030">
                        <tspan x="760.696" y="54">CEO(P)</tspan>
                        <tspan x="774.424" y="77">JSC</tspan>
                    </text>
                    <text id="CAO(D)-SNR-STAFF" font-family="Poppins-SemiBold, Poppins" font-size="16" font-weight="500" fill="#303030">
                        <tspan x="988.352" y="54">CAO(D)</tspan>
                        <tspan x="978.52" y="77">SNR STAFF</tspan>
                    </text>
                    <rect id="Rectangle-Copy-52" stroke="#303030" stroke-width="2" fill="#FFFFFF" x="1151" y="1" width="198" height="118" rx="20"></rect>
                    <text id="CEO(D)-JNR-STAFF" font-family="Poppins-SemiBold, Poppins" font-size="16" font-weight="500" fill="#303030">
                        <tspan x="1219.824" y="54">CEO(D)</tspan>
                        <tspan x="1208.832" y="77">JNR STAFF</tspan>
                    </text>
                    <rect id="Rectangle-Copy-58" stroke="#303030" stroke-width="2" fill="#FFFFFF" x="1" y="1" width="198" height="118" rx="20"></rect>
                    <rect id="Rectangle-Copy-57" stroke="#303030" stroke-width="2" fill="#FFFFFF" x="231" y="1" width="198" height="118" rx="20"></rect>
                    <text id="CAO-R/P" font-family="Poppins-SemiBold, Poppins" font-size="16" font-weight="500" fill="#303030">
                        <tspan x="81.848" y="54">CAO</tspan>
                        <tspan x="86.12" y="77">R/P</tspan>
                    </text>
                    <text id="CEO-T/S" font-family="Poppins-SemiBold, Poppins" font-size="16" font-weight="500" fill="#303030">
                        <tspan x="313.32" y="54">CEO</tspan>
                        <tspan x="316.624" y="77">T/S</tspan>
                    </text>
                    <rect id="Rectangle-Copy-56" stroke="#303030" stroke-width="2" fill="#FFFFFF" x="461" y="1" width="198" height="118" rx="20"></rect>
                    <text id="CAO(P)-JSC" font-family="Poppins-SemiBold, Poppins" font-size="16" font-weight="500" fill="#303030">
                        <tspan x="529.224" y="54">CAO(P)</tspan>
                        <tspan x="544.424" y="77">JSC</tspan>
                    </text>
                </g>
                <rect id="Rectangle" fill="#303030" x="100" y="683" width="1150" height="2"></rect>
                <rect id="Rectangle-Copy-2" fill="#303030" x="1554" y="683" width="921" height="2"></rect>
                <path id="Line-Copy-7" d="M791.5,683 L791.5,718.777 L796.664885,718.777778 C797.090628,718.777778 797.441961,719.096362 797.493493,719.508138 L797.5,719.612893 C797.5,719.742541 797.469815,719.870408 797.411835,719.986368 L791.247041,732.315954 C791.040777,732.728483 790.539146,732.895694 790.126617,732.689429 C789.964999,732.608621 789.83395,732.477572 789.753142,732.315954 L783.588348,719.986368 C783.382084,719.573839 783.549294,719.072208 783.961823,718.865943 C784.077784,718.807963 784.205651,718.777778 784.335298,718.777778 L789.5,718.777 L789.5,683 L791.5,683 Z" fill="#303030" fill-rule="nonzero"></path>
                <path id="Line-Copy-9" d="M561.5,683 L561.5,718.777 L566.664885,718.777778 C567.090628,718.777778 567.441961,719.096362 567.493493,719.508138 L567.5,719.612893 C567.5,719.742541 567.469815,719.870408 567.411835,719.986368 L561.247041,732.315954 C561.040777,732.728483 560.539146,732.895694 560.126617,732.689429 C559.964999,732.608621 559.83395,732.477572 559.753142,732.315954 L553.588348,719.986368 C553.382084,719.573839 553.549294,719.072208 553.961823,718.865943 C554.077784,718.807963 554.205651,718.777778 554.335298,718.777778 L559.5,718.777 L559.5,683 L561.5,683 Z" fill="#303030" fill-rule="nonzero"></path>
                <path id="Line-Copy-23" d="M101.5,683 L101.5,718.777 L106.664885,718.777778 C107.090628,718.777778 107.441961,719.096362 107.493493,719.508138 L107.5,719.612893 C107.5,719.742541 107.469815,719.870408 107.411835,719.986368 L101.247041,732.315954 C101.040777,732.728483 100.539146,732.895694 100.126617,732.689429 C99.9649988,732.608621 99.8339504,732.477572 99.7531416,732.315954 L93.5883484,719.986368 C93.3820839,719.573839 93.5492943,719.072208 93.9618234,718.865943 C94.0777837,718.807963 94.2056507,718.777778 94.3352983,718.777778 L99.5,718.777 L99.5,683 L101.5,683 Z" fill="#303030" fill-rule="nonzero"></path>
                <path id="Line-Copy-24" d="M331.5,683 L331.5,718.777 L336.664885,718.777778 C337.090628,718.777778 337.441961,719.096362 337.493493,719.508138 L337.5,719.612893 C337.5,719.742541 337.469815,719.870408 337.411835,719.986368 L331.247041,732.315954 C331.040777,732.728483 330.539146,732.895694 330.126617,732.689429 C329.964999,732.608621 329.83395,732.477572 329.753142,732.315954 L323.588348,719.986368 C323.382084,719.573839 323.549294,719.072208 323.961823,718.865943 C324.077784,718.807963 324.205651,718.777778 324.335298,718.777778 L329.5,718.777 L329.5,683 L331.5,683 Z" fill="#303030" fill-rule="nonzero"></path>
                <rect id="Rectangle-Copy-47" stroke="#303030" stroke-width="2" fill="#FFFFFF" x="1" y="936" width="198" height="118" rx="20"></rect>
                <rect id="Rectangle-Copy-46" stroke="#303030" stroke-width="2" fill="#FFFFFF" x="231" y="936" width="198" height="118" rx="20"></rect>
                <text id="ACEO-R/P" font-family="Poppins-SemiBold, Poppins" font-size="16" font-weight="500" fill="#303030">
                    <tspan x="77.592" y="989">ACEO</tspan>
                    <tspan x="86.12" y="1012">R/P</tspan>
                </text>
                <text id="ACEO-DISCIP/SSC/P" font-family="Poppins-SemiBold, Poppins" font-size="16" font-weight="500" fill="#303030">
                    <tspan x="307.592" y="989">ACEO</tspan>
                    <tspan x="275.408" y="1012">DISCIP/SSC/P</tspan>
                </text>
                <path id="Line-Copy-11" d="M331.5,854 L331.5,921.777 L336.664885,921.777778 C337.090628,921.777778 337.441961,922.096362 337.493493,922.508138 L337.5,922.612893 C337.5,922.742541 337.469815,922.870408 337.411835,922.986368 L331.247041,935.315954 C331.040777,935.728483 330.539146,935.895694 330.126617,935.689429 C329.964999,935.608621 329.83395,935.477572 329.753142,935.315954 L323.588348,922.986368 C323.382084,922.573839 323.549294,922.072208 323.961823,921.865943 C324.077784,921.807963 324.205651,921.777778 324.335298,921.777778 L329.5,921.777 L329.5,854 L331.5,854 Z" fill="#303030" fill-rule="nonzero"></path>
                <path id="Line-Copy-10" d="M101.5,854 L101.5,921.777 L106.664885,921.777778 C107.090628,921.777778 107.441961,922.096362 107.493493,922.508138 L107.5,922.612893 C107.5,922.742541 107.469815,922.870408 107.411835,922.986368 L101.247041,935.315954 C101.040777,935.728483 100.539146,935.895694 100.126617,935.689429 C99.9649988,935.608621 99.8339504,935.477572 99.7531416,935.315954 L93.5883484,922.986368 C93.3820839,922.573839 93.5492943,922.072208 93.9618234,921.865943 C94.0777837,921.807963 94.2056507,921.777778 94.3352983,921.777778 L99.5,921.777 L99.5,854 L101.5,854 Z" fill="#303030" fill-rule="nonzero"></path>
                <path id="Line-Copy-16" d="M1250.99034,682.990431 L1250.99995,683.990385 L1251.334,718.766 L1256.49899,718.716895 C1256.92471,718.712802 1257.27909,719.027993 1257.33458,719.439255 L1257.34209,719.543942 C1257.34334,719.673584 1257.31438,719.801735 1257.25752,719.918248 L1251.21156,732.306538 C1251.00927,732.721031 1250.50927,732.893057 1250.09478,732.690769 C1249.93239,732.611518 1249.80009,732.481735 1249.71773,732.320902 L1243.43467,720.05116 C1243.22445,719.640633 1243.38683,719.137417 1243.79736,718.927196 C1243.91276,718.868103 1244.04033,718.83669 1244.16997,718.835443 L1249.334,718.785 L1249.00005,684.009615 L1248.99043,683.009661 L1250.99034,682.990431 Z" fill="#303030" fill-rule="nonzero"></path>
                <path id="Line-Copy-25" d="M1554.99034,682.990431 L1554.99995,683.990385 L1555.353,720.768 L1560.51824,720.719207 C1560.94396,720.715113 1561.29834,721.030304 1561.35383,721.441566 L1561.36135,721.546254 C1561.36259,721.675895 1561.33364,721.804047 1561.27677,721.920559 L1555.23081,734.30885 C1555.02853,734.723343 1554.52853,734.895369 1554.11403,734.69308 C1553.95165,734.613829 1553.81934,734.484047 1553.73698,734.323213 L1547.45393,722.053471 C1547.24371,721.642944 1547.40609,721.139729 1547.81661,720.929507 C1547.93201,720.870415 1548.05958,720.839001 1548.18922,720.837755 L1553.353,720.788 L1553.00005,684.009615 L1552.99043,683.009661 L1554.99034,682.990431 Z" fill="#303030" fill-rule="nonzero"></path>
                <path id="Line-Copy-26" d="M1785.24995,683.990431 L1785.25957,684.990385 L1785.612,721.768 L1790.77785,721.719207 C1791.20358,721.715113 1791.55796,722.030304 1791.61345,722.441566 L1791.62096,722.546254 C1791.62221,722.675895 1791.59325,722.804047 1791.53639,722.920559 L1785.49043,735.30885 C1785.28814,735.723343 1784.78814,735.895369 1784.37365,735.69308 C1784.21126,735.613829 1784.07896,735.484047 1783.9966,735.323213 L1777.71354,723.053471 C1777.50332,722.642944 1777.6657,722.139729 1778.07623,721.929507 C1778.19162,721.870415 1778.3192,721.839001 1778.44884,721.837755 L1783.613,721.788 L1783.25966,685.009615 L1783.25005,684.009661 L1785.24995,683.990431 Z" fill="#303030" fill-rule="nonzero"></path>
                <path id="Line-Copy-27" d="M2015.24995,683.990431 L2015.25957,684.990385 L2015.612,721.768 L2020.77785,721.719207 C2021.20358,721.715113 2021.55796,722.030304 2021.61345,722.441566 L2021.62096,722.546254 C2021.62221,722.675895 2021.59325,722.804047 2021.53639,722.920559 L2015.49043,735.30885 C2015.28814,735.723343 2014.78814,735.895369 2014.37365,735.69308 C2014.21126,735.613829 2014.07896,735.484047 2013.9966,735.323213 L2007.71354,723.053471 C2007.50332,722.642944 2007.6657,722.139729 2008.07623,721.929507 C2008.19162,721.870415 2008.3192,721.839001 2008.44884,721.837755 L2013.613,721.788 L2013.25966,685.009615 L2013.25005,684.009661 L2015.24995,683.990431 Z" fill="#303030" fill-rule="nonzero"></path>
                <path id="Line-Copy-28" d="M2245.24995,683.990431 L2245.25957,684.990385 L2245.612,721.768 L2250.77785,721.719207 C2251.20358,721.715113 2251.55796,722.030304 2251.61345,722.441566 L2251.62096,722.546254 C2251.62221,722.675895 2251.59325,722.804047 2251.53639,722.920559 L2245.49043,735.30885 C2245.28814,735.723343 2244.78814,735.895369 2244.37365,735.69308 C2244.21126,735.613829 2244.07896,735.484047 2243.9966,735.323213 L2237.71354,723.053471 C2237.50332,722.642944 2237.6657,722.139729 2238.07623,721.929507 C2238.19162,721.870415 2238.3192,721.839001 2238.44884,721.837755 L2243.613,721.788 L2243.25966,685.009615 L2243.25005,684.009661 L2245.24995,683.990431 Z" fill="#303030" fill-rule="nonzero"></path>
                <path id="Line-Copy-29" d="M2475.24995,682.990431 L2475.25957,683.990385 L2475.612,720.768 L2480.77785,720.719207 C2481.20358,720.715113 2481.55796,721.030304 2481.61345,721.441566 L2481.62096,721.546254 C2481.62221,721.675895 2481.59325,721.804047 2481.53639,721.920559 L2475.49043,734.30885 C2475.28814,734.723343 2474.78814,734.895369 2474.37365,734.69308 C2474.21126,734.613829 2474.07896,734.484047 2473.9966,734.323213 L2467.71354,722.053471 C2467.50332,721.642944 2467.6657,721.139729 2468.07623,720.929507 C2468.19162,720.870415 2468.3192,720.839001 2468.44884,720.837755 L2473.613,720.788 L2473.25966,684.009615 L2473.25005,683.009661 L2475.24995,682.990431 Z" fill="#303030" fill-rule="nonzero"></path>
                <path id="Line-Copy-22" d="M1020.99034,682.990431 L1020.99995,683.990385 L1021.334,718.766 L1026.49899,718.716895 C1026.92471,718.712802 1027.27909,719.027993 1027.33458,719.439255 L1027.34209,719.543942 C1027.34334,719.673584 1027.31438,719.801735 1027.25752,719.918248 L1021.21156,732.306538 C1021.00927,732.721031 1020.50927,732.893057 1020.09478,732.690769 C1019.93239,732.611518 1019.80009,732.481735 1019.71773,732.320902 L1013.43467,720.05116 C1013.22445,719.640633 1013.38683,719.137417 1013.79736,718.927196 C1013.91276,718.868103 1014.04033,718.83669 1014.16997,718.835443 L1019.334,718.785 L1019.00005,684.009615 L1018.99043,683.009661 L1020.99034,682.990431 Z" fill="#303030" fill-rule="nonzero"></path>
                <rect id="Rectangle-Copy-51" stroke="#303030" stroke-width="2" fill="#FFFFFF" x="921" y="936" width="198" height="118" rx="20"></rect>
                <text id="ACEO-(DISCIPLINE)-SS" font-family="Poppins-SemiBold, Poppins" font-size="16" font-weight="500" fill="#303030">
                    <tspan x="997.592" y="978">ACEO</tspan>
                    <tspan x="970.144" y="1001">(DISCIPLINE)</tspan>
                    <tspan x="985.872" y="1024">SSC/PST</tspan>
                </text>
                <rect id="Rectangle-Copy-59" stroke="#303030" stroke-width="2" fill="#FFFFFF" x="1151" y="936" width="198" height="118" rx="20"></rect>
                <text id="ACEO-(DISCIPLINE)/JS" font-family="Poppins-SemiBold, Poppins" font-size="16" font-weight="500" fill="#303030">
                    <tspan x="1227.592" y="978">ACEO</tspan>
                    <tspan x="1180.68" y="1001">(DISCIPLINE)/JSC</tspan>
                    <tspan x="1208.584" y="1024">LOCAL/HQ</tspan>
                </text>
                <path id="Line-Copy-15" d="M1021.5,854 L1021.5,921.777 L1026.66488,921.777778 C1027.09063,921.777778 1027.44196,922.096362 1027.49349,922.508138 L1027.5,922.612893 C1027.5,922.742541 1027.46981,922.870408 1027.41183,922.986368 L1021.24704,935.315954 C1021.04078,935.728483 1020.53915,935.895694 1020.12662,935.689429 C1019.965,935.608621 1019.83395,935.477572 1019.75314,935.315954 L1013.58835,922.986368 C1013.38208,922.573839 1013.54929,922.072208 1013.96182,921.865943 C1014.07778,921.807963 1014.20565,921.777778 1014.3353,921.777778 L1019.5,921.777 L1019.5,854 L1021.5,854 Z" fill="#303030" fill-rule="nonzero"></path>
                <path id="Line-Copy-17" d="M1251.5,854 L1251.5,921.777 L1256.66488,921.777778 C1257.09063,921.777778 1257.44196,922.096362 1257.49349,922.508138 L1257.5,922.612893 C1257.5,922.742541 1257.46981,922.870408 1257.41183,922.986368 L1251.24704,935.315954 C1251.04078,935.728483 1250.53915,935.895694 1250.12662,935.689429 C1249.965,935.608621 1249.83395,935.477572 1249.75314,935.315954 L1243.58835,922.986368 C1243.38208,922.573839 1243.54929,922.072208 1243.96182,921.865943 C1244.07778,921.807963 1244.20565,921.777778 1244.3353,921.777778 L1249.5,921.777 L1249.5,854 L1251.5,854 Z" fill="#303030" fill-rule="nonzero"></path>
                <g id="Group-4" transform="translate(1454, 733)">
                    <g id="Group-3" transform="translate(0, 2)">
                        <rect id="Rectangle-Copy-55" stroke="#303030" stroke-width="2" fill="#FFFFFF" x="1" y="1" width="198" height="118" rx="20"></rect>
                        <text id="CAO(TRG)-OVERSEES" font-family="Poppins-SemiBold, Poppins" font-size="16" font-weight="500" fill="#303030">
                            <tspan x="58.2" y="54">CAO(TRG)</tspan>
                            <tspan x="60.392" y="77">OVERSEES</tspan>
                        </text>
                    </g>
                    <g id="Group-3-Copy" transform="translate(230, 2)">
                        <rect id="Rectangle-Copy-55" stroke="#303030" stroke-width="2" fill="#FFFFFF" x="1" y="1" width="198" height="118" rx="20"></rect>
                        <text id="CEO(TRG)-LOCAL" font-family="Poppins-SemiBold, Poppins" font-size="16" font-weight="500" fill="#303030">
                            <tspan x="59.672" y="54">CEO(TRG)</tspan>
                            <tspan x="74.504" y="77">LOCAL</tspan>
                        </text>
                    </g>
                    <g id="Group-7" transform="translate(460, 0)">
                        <g id="Group-3-Copy-2" transform="translate(0, 2)">
                            <rect id="Rectangle-Copy-55" stroke="#303030" stroke-width="2" fill="#FFFFFF" x="1" y="1" width="198" height="118" rx="20"></rect>
                            <text id="CAO-PENS" font-family="Poppins-SemiBold, Poppins" font-size="16" font-weight="500" fill="#303030">
                                <tspan x="81.848" y="54">CAO</tspan>
                                <tspan x="80.128" y="77">PENS</tspan>
                            </text>
                        </g>
                        <g id="Group-3-Copy-3" transform="translate(230, 2)">
                            <rect id="Rectangle-Copy-55" stroke="#303030" stroke-width="2" fill="#FFFFFF" x="1" y="1" width="198" height="118" rx="20"></rect>
                            <text id="CAO-NHIS/OTHERS" font-family="Poppins-SemiBold, Poppins" font-size="16" font-weight="500" fill="#303030">
                                <tspan x="81.848" y="54">CAO</tspan>
                                <tspan x="46.512" y="77">NHIS/OTHERS</tspan>
                            </text>
                        </g>
                        <g id="Group-3-Copy-4" transform="translate(460, 0)">
                            <rect id="Rectangle-Copy-55" stroke="#303030" stroke-width="2" fill="#FFFFFF" x="1" y="1" width="198" height="118" rx="20"></rect>
                            <text id="PWS-TRANSPORT" font-family="Poppins-SemiBold, Poppins" font-size="16" font-weight="500" fill="#303030">
                                <tspan x="82.072" y="54">PWS</tspan>
                                <tspan x="52.888" y="77">TRANSPORT</tspan>
                            </text>
                        </g>
                    </g>
                </g>
                <line x1="674" y1="374" x2="674" y2="503" id="Line-Copy-6" stroke="#303030" stroke-width="2" stroke-linecap="square"></line>
                <line x1="2014.5" y1="374" x2="2015" y2="423" id="Line-Copy-12" stroke="#303030" stroke-width="2" stroke-linecap="square"></line>
                <rect id="Rectangle-Copy" fill="#303030" x="674" y="186" width="1340" height="2"></rect>
                <rect id="Rectangle" fill="#303030" x="1670" y="422" width="574" height="2"></rect>
                <path id="Line-Copy-5" d="M2245.5,423 L2245.5,490 L2251.5,490 L2244.5,504 L2237.5,490 L2243.5,490 L2243.5,423 L2245.5,423 Z" fill="#303030" fill-rule="nonzero"></path>
                <path id="Line-Copy-19" d="M1671.5,423 L1671.5,490 L1677.5,490 L1670.5,504 L1663.5,490 L1669.5,490 L1669.5,423 L1671.5,423 Z" fill="#303030" fill-rule="nonzero"></path>
            </g>
        </g>
    </g>
</svg>