<?xml version="1.0" encoding="UTF-8"?>
<svg width="1680px" height="1056px" viewBox="0 0 1680 1056" version="1.1" xmlns="http://www.w3.org/2000/svg" xmlns:xlink="http://www.w3.org/1999/xlink">
    <title>Group 16</title>
    <g id="Organogram" stroke="none" stroke-width="1" fill="none" fill-rule="evenodd">
        <g id="Group-16">
            <rect id="Rectangle" stroke="#303030" stroke-width="2" fill="#FFFFFF" x="841" y="1" width="138" height="138" rx="20"></rect>
            <rect id="Rectangle-Copy-2" stroke="#303030" stroke-width="2" fill="#FFFFFF" x="851" y="261" width="118" height="118" rx="20"></rect>
            <text id="Permanent-Secretary" font-family="Inter-SemiBold, Inter" font-size="16" font-weight="500" fill="#303030">
                <tspan x="859.755682" y="312">PERMANENT</tspan>
                <tspan x="862.022727" y="332">SECRETARY</tspan>
            </text>
            <g id="Group-15" transform="translate(122, 208.4904)">
                <rect id="Rectangle-Copy-3" stroke="#303030" stroke-width="2" fill="#FFFFFF" x="569" y="145.673077" width="118" height="118" rx="20"></rect>
                <rect id="Rectangle-Copy-5" stroke="#303030" stroke-width="2" fill="#FFFFFF" x="285" y="145.673077" width="118" height="118" rx="20"></rect>
                <rect id="Rectangle-Copy-7" stroke="#303030" stroke-width="2" fill="#FFFFFF" x="1" y="145.673077" width="118" height="118" rx="20"></rect>
                <rect id="Rectangle-Copy-9" stroke="#303030" stroke-width="2" fill="#FFFFFF" x="427" y="145.673077" width="118" height="118" rx="20"></rect>
                <rect id="Rectangle-Copy-8" stroke="#303030" stroke-width="2" fill="#FFFFFF" x="143" y="145.673077" width="118" height="118" rx="20"></rect>
                <rect id="Rectangle-Copy-36" stroke="#303030" stroke-width="2" fill="#FFFFFF" x="143" y="314" width="118" height="118" rx="20"></rect>
                <path id="Line-Copy-7" d="M202.990083,263.499796 L202.999951,264.499747 L203.361,301.163 L209.361499,301.104679 L202.5,315.173077 L195.362181,301.242839 L201.361,301.183 L201.000049,264.519484 L200.99018,263.519533 L202.990083,263.499796 Z" fill="#303030" fill-rule="nonzero"></path>
                <text id="GBB" font-family="Inter-SemiBold, Inter" font-size="16" font-weight="500" fill="#303030">
                    <tspan x="43.4431818" y="208.673077">GBB</tspan>
                </text>
                <text id="NCC" font-family="Inter-SemiBold, Inter" font-size="16" font-weight="500" fill="#303030">
                    <tspan x="184.176136" y="208.673077">NCC</tspan>
                </text>
                <text id="USPF" font-family="Inter-Bold, Inter" font-size="16" font-weight="bold" fill="#303030">
                    <tspan x="181.065341" y="378">USPF</tspan>
                </text>
                <text id="NITDA" font-family="Inter-SemiBold, Inter" font-size="16" font-weight="500" fill="#303030">
                    <tspan x="319.011364" y="208.673077">NITDA</tspan>
                </text>
                <text id="NIPOST" font-family="Inter-SemiBold, Inter" font-size="16" font-weight="500" fill="#303030">
                    <tspan x="456.056818" y="208.673077">NIPOST</tspan>
                </text>
                <text id="NIGCOMSAT" font-family="Inter-SemiBold, Inter" font-size="16" font-weight="500" fill="#303030">
                    <tspan x="578.176136" y="208.673077">NIGCOMSAT</tspan>
                </text>
                <path id="Line-Copy-2" d="M629.5,0.384615385 L629.5,131.384 L635.5,131.384615 L628.5,145.384615 L621.5,131.384615 L627.5,131.384 L627.5,0.384615385 L629.5,0.384615385 Z" fill="#303030" fill-rule="nonzero"></path>
                <path id="Line-Copy-3" d="M487.5,0.384615385 L487.5,131.384 L493.5,131.384615 L486.5,145.384615 L479.5,131.384615 L485.5,131.384 L485.5,0.384615385 L487.5,0.384615385 Z" fill="#303030" fill-rule="nonzero"></path>
                <path id="Line-Copy-4" d="M345.5,0.384615385 L345.499,131.384 L351.5,131.384615 L344.5,145.384615 L337.5,131.384615 L343.499,131.384 L343.5,0.384615385 L345.5,0.384615385 Z" fill="#303030" fill-rule="nonzero"></path>
                <path id="Line-Copy-5" d="M203.5,0.384615385 L203.5,131.384 L209.5,131.384615 L202.5,145.384615 L195.5,131.384615 L201.5,131.384 L201.5,0.384615385 L203.5,0.384615385 Z" fill="#303030" fill-rule="nonzero"></path>
                <path id="Line-Copy-6" d="M61.5,0.384615385 L61.5,131.384 L67.5,131.384615 L60.5,145.384615 L53.5,131.384615 L59.5,131.384 L59.5,0.384615385 L61.5,0.384615385 Z" fill="#303030" fill-rule="nonzero"></path>
            </g>
            <rect id="Rectangle-Copy-38" stroke="#303030" stroke-width="2" fill="#FFFFFF" x="1419" y="414" width="118" height="118" rx="20"></rect>
            <rect id="Rectangle-Copy-37" stroke="#303030" stroke-width="2" fill="#FFFFFF" x="1135" y="414" width="118" height="118" rx="20"></rect>
            <g id="Group-14" transform="translate(0, 378.5)">
                <text id="Departments" font-family="Georgia-Bold, Georgia" font-size="100" font-weight="bold" line-spacing="200" fill="#F6FFF8">
                    <tspan x="502" y="569.5">Departments</tspan>
                </text>
                <path id="Line-Copy-8" d="M909.000472,-0.500472147 L911.000472,-0.49952763 L911,0.500472259 L910.818,383 L916.81936,383.003307 L909.812749,397 L902.819362,382.996696 L908.818,382.999 L909,0.499527741 L909.000472,-0.500472147 Z" fill="#303030" fill-rule="nonzero"></path>
                <rect id="Rectangle-Copy-19" stroke="#303030" stroke-width="2" fill="#FFFFFF" x="851" y="397.5" width="118" height="118" rx="20"></rect>
                <rect id="Rectangle-Copy-4" stroke="#303030" stroke-width="2" fill="#FFFFFF" x="569" y="397.5" width="118" height="118" rx="20"></rect>
                <rect id="Rectangle-Copy-17" stroke="#303030" stroke-width="2" fill="#FFFFFF" x="285" y="397.5" width="118" height="118" rx="20"></rect>
                <rect id="Rectangle-Copy-16" stroke="#303030" stroke-width="2" fill="#FFFFFF" x="1" y="397.5" width="118" height="118" rx="20"></rect>
                <rect id="Rectangle-Copy-15" stroke="#303030" stroke-width="2" fill="#FFFFFF" x="711" y="398" width="118" height="118" rx="20"></rect>
                <rect id="Rectangle-Copy-14" stroke="#303030" stroke-width="2" fill="#FFFFFF" x="427" y="397.5" width="118" height="118" rx="20"></rect>
                <rect id="Rectangle-Copy-13" stroke="#303030" stroke-width="2" fill="#FFFFFF" x="143" y="397.5" width="118" height="118" rx="20"></rect>
                <rect id="Rectangle-Copy-43" stroke="#303030" stroke-width="2" fill="#FFFFFF" x="1419" y="397.5" width="118" height="118" rx="20"></rect>
                <rect id="Rectangle-Copy-42" stroke="#303030" stroke-width="2" fill="#FFFFFF" x="1135" y="397.5" width="118" height="118" rx="20"></rect>
                <rect id="Rectangle-Copy-41" stroke="#303030" stroke-width="2" fill="#FFFFFF" x="1561" y="397.5" width="118" height="118" rx="20"></rect>
                <rect id="Rectangle-Copy-40" stroke="#303030" stroke-width="2" fill="#FFFFFF" x="1277" y="397.5" width="118" height="118" rx="20"></rect>
                <rect id="Rectangle-Copy-39" stroke="#303030" stroke-width="2" fill="#FFFFFF" x="993" y="397.5" width="118" height="118" rx="20"></rect>
                <text id="DHRM" font-family="Inter-SemiBold, Inter" font-size="16" font-weight="500" fill="#303030">
                    <tspan x="35.7982955" y="460.5">DHRM</tspan>
                </text>
                <text id="DF&amp;A" font-family="Inter-SemiBold, Inter" font-size="16" font-weight="500" fill="#303030">
                    <tspan x="180.428977" y="460.5">DF&amp;A</tspan>
                </text>
                <text id="DPRS" font-family="Inter-SemiBold, Inter" font-size="16" font-weight="500" fill="#303030">
                    <tspan x="322.659091" y="460.5">DPRS</tspan>
                </text>
                <text id="DTPS" font-family="Inter-SemiBold, Inter" font-size="16" font-weight="500" fill="#303030">
                    <tspan x="464.585227" y="460.5">DTPS</tspan>
                </text>
                <text id="DSM" font-family="Inter-SemiBold, Inter" font-size="16" font-weight="500" fill="#303030">
                    <tspan x="609.761364" y="460.5">DSM</tspan>
                </text>
                <text id="D(RCSI)" font-family="Inter-SemiBold, Inter" font-size="16" font-weight="500" fill="#303030">
                    <tspan x="739.363636" y="460.5">D(RCSI)</tspan>
                </text>
                <text id="DICT" font-family="Inter-SemiBold, Inter" font-size="16" font-weight="500" fill="#303030">
                    <tspan x="890.778409" y="460.5">DICT</tspan>
                </text>
                <text id="DE-GOV" font-family="Inter-SemiBold, Inter" font-size="16" font-weight="500" fill="#303030">
                    <tspan x="1019.58807" y="460.5">DE-GOV</tspan>
                </text>
                <text id="DPROC" font-family="Inter-SemiBold, Inter" font-size="16" font-weight="500" fill="#303030">
                    <tspan x="1165.70455" y="460.5">DPROC</tspan>
                </text>
                <text id="DRM&amp;S" font-family="Inter-SemiBold, Inter" font-size="16" font-weight="500" fill="#303030">
                    <tspan x="1307.25568" y="460.5">DRM&amp;S</tspan>
                </text>
                <text id="DGS" font-family="Inter-SemiBold, Inter" font-size="16" font-weight="500" fill="#303030">
                    <tspan x="1460.97159" y="460.5">DGS</tspan>
                </text>
                <text id="DNFMC" font-family="Inter-SemiBold, Inter" font-size="16" font-weight="500" fill="#303030">
                    <tspan x="1590.39489" y="460.5">DNFMC</tspan>
                </text>
                <path id="Line-Copy" d="M771.5,303 L771.5,382 L777.5,382 L770.5,396 L763.5,382 L769.5,382 L769.5,303 L771.5,303 Z" fill="#303030" fill-rule="nonzero"></path>
                <path id="Line-Copy" d="M1622,302.5 L1622,381.5 L1628,381.5 L1621,395.5 L1614,381.5 L1620,381.5 L1620,302.5 L1622,302.5 Z" fill="#303030" fill-rule="nonzero"></path>
                <path id="Line-Copy-2" d="M1480,302.5 L1480,381.5 L1486,381.5 L1479,395.5 L1472,381.5 L1478,381.5 L1478,302.5 L1480,302.5 Z" fill="#303030" fill-rule="nonzero"></path>
                <path id="Line-Copy-3" d="M1338,302.5 L1338,381.5 L1344,381.5 L1337,395.5 L1330,381.5 L1336,381.5 L1336,302.5 L1338,302.5 Z" fill="#303030" fill-rule="nonzero"></path>
                <path id="Line-Copy-4" d="M1196,302.5 L1196,381.5 L1202,381.5 L1195,395.5 L1188,381.5 L1194,381.5 L1194,302.5 L1196,302.5 Z" fill="#303030" fill-rule="nonzero"></path>
                <path id="Line-Copy-5" d="M1053.5,303 L1053.5,382 L1059.5,382 L1052.5,396 L1045.5,382 L1051.5,382 L1051.5,303 L1053.5,303 Z" fill="#303030" fill-rule="nonzero"></path>
                <path id="Line-Copy-2" d="M629.5,303 L629.5,382 L635.5,382 L628.5,396 L621.5,382 L627.5,382 L627.5,303 L629.5,303 Z" fill="#303030" fill-rule="nonzero"></path>
                <path id="Line-Copy-3" d="M487.5,303 L487.5,382 L493.5,382 L486.5,396 L479.5,382 L485.5,382 L485.5,303 L487.5,303 Z" fill="#303030" fill-rule="nonzero"></path>
                <path id="Line-Copy-4" d="M345.5,303 L345.5,382 L351.5,382 L344.5,396 L337.5,382 L343.5,382 L343.5,303 L345.5,303 Z" fill="#303030" fill-rule="nonzero"></path>
                <path id="Line-Copy-5" d="M203.5,303 L203.5,382 L209.5,382 L202.5,396 L195.5,382 L201.5,382 L201.5,303 L203.5,303 Z" fill="#303030" fill-rule="nonzero"></path>
                <path id="Line-Copy-6" d="M61.5,303 L61.5,382 L67.5,382 L60.5,396 L53.5,382 L59.5,382 L59.5,303 L61.5,303 Z" fill="#303030" fill-rule="nonzero"></path>
                <rect id="Rectangle" fill="#303030" x="60" y="302.5" width="1561" height="2"></rect>
            </g>
            <rect id="Rectangle-Copy-35" stroke="#303030" stroke-width="2" fill="#FFFFFF" x="1561" y="414" width="118" height="118" rx="20"></rect>
            <rect id="Rectangle-Copy-34" stroke="#303030" stroke-width="2" fill="#FFFFFF" x="1277" y="414" width="118" height="118" rx="20"></rect>
            <rect id="Rectangle-Copy-33" stroke="#303030" stroke-width="2" fill="#FFFFFF" x="993" y="414" width="118" height="118" rx="20"></rect>
            <text id="PRESS" font-family="Inter-SemiBold, Inter" font-size="16" font-weight="500" fill="#303030">
                <tspan x="1026.40057" y="477">PRESS</tspan>
            </text>
            <text id="INTERNAL-AUDIT" font-family="Inter-SemiBold, Inter" font-size="16" font-weight="500" fill="#303030">
                <tspan x="1154.28693" y="465">INTERNAL </tspan>
                <tspan x="1169.06818" y="485">AUDIT</tspan>
            </text>
            <text id="PROTOCOL" font-family="Inter-SemiBold, Inter" font-size="16" font-weight="500" fill="#303030">
                <tspan x="1291.29545" y="477">PROTOCOL</tspan>
            </text>
            <text id="LEGAL" font-family="Inter-SemiBold, Inter" font-size="16" font-weight="500" fill="#303030">
                <tspan x="1452.25284" y="477">LEGAL</tspan>
            </text>
            <text id="ACTU" font-family="Inter-SemiBold, Inter" font-size="16" font-weight="500" fill="#303030">
                <tspan x="1597.11364" y="477">ACTU</tspan>
            </text>
            <path id="Line" d="M910.993921,138.993958 L910.999982,139.99394 L911.651,247.493 L917.651384,247.457117 L910.736359,261.499284 L903.651641,247.541964 L909.651,247.505 L909.000018,140.00606 L908.993958,139.006079 L910.993921,138.993958 Z" fill="#303030" fill-rule="nonzero"></path>
            <rect id="Rectangle" stroke="#303030" fill="#303030" x="182.5" y="209.5" width="728" height="1"></rect>
            <path id="Line-Copy-2" d="M1621.5,320.5 L1621.5,398.5 L1627.5,398.5 L1620.5,412.5 L1613.5,398.5 L1619.5,398.5 L1619.5,320.5 L1621.5,320.5 Z" fill="#303030" fill-rule="nonzero"></path>
            <path id="Line-Copy-3" d="M1479.5,320.5 L1479.5,398.5 L1485.5,398.5 L1478.5,412.5 L1471.5,398.5 L1477.5,398.5 L1477.5,320.5 L1479.5,320.5 Z" fill="#303030" fill-rule="nonzero"></path>
            <path id="Line-Copy-4" d="M1337.5,320.5 L1337.5,398.5 L1343.5,398.5 L1336.5,412.5 L1329.5,398.5 L1335.5,398.5 L1335.5,320.5 L1337.5,320.5 Z" fill="#303030" fill-rule="nonzero"></path>
            <path id="Line-Copy-5" d="M1195.5,320.5 L1195.5,398.5 L1201.5,398.5 L1194.5,412.5 L1187.5,398.5 L1193.5,398.5 L1193.5,320.5 L1195.5,320.5 Z" fill="#303030" fill-rule="nonzero"></path>
            <path id="Line-Copy-6" d="M1053.5,320.5 L1053.5,398.5 L1059.5,398.5 L1052.5,412.5 L1045.5,398.5 L1051.5,398.5 L1051.5,320.5 L1053.5,320.5 Z" fill="#303030" fill-rule="nonzero"></path>
            <rect id="Rectangle" stroke="#303030" fill="#303030" x="970.5" y="319.5" width="651" height="1"></rect>
            <text id="Units" font-family="Georgia-Bold, Georgia" font-size="100" font-weight="bold" line-spacing="200" fill="#F6FFF8">
                <tspan x="1156.64453" y="255">Units</tspan>
            </text>
            <text id="Agencies" font-family="Georgia-Bold, Georgia" font-size="100" font-weight="bold" line-spacing="200" fill="#F6FFF8">
                <tspan x="194" y="132">Agencies</tspan>
            </text>
            <text id="Honourable-Minister" font-family="Inter-SemiBold, Inter" font-size="16" font-weight="500" fill="#303030">
                <tspan x="854.213068" y="62">HONOURABLE</tspan>
                <tspan x="871.889205" y="82">MINISTER</tspan>
            </text>
        </g>
    </g>
</svg>