<?xml version="1.0" encoding="UTF-8"?>
<svg width="2954px" height="1500px" viewBox="0 0 2954 1500" version="1.1" xmlns="http://www.w3.org/2000/svg" xmlns:xlink="http://www.w3.org/1999/xlink">
    <title>Group 13</title>
    <g id="organogram" stroke="none" stroke-width="1" fill="none" fill-rule="evenodd">
        <g id="PRS" transform="translate(-184, -133)">
            <g id="Group-13" transform="translate(184, 133)">
                <g id="Group-6" transform="translate(461, 254)">
                    <rect id="Rectangle" stroke="#303030" stroke-width="2" fill="#FFFFFF" x="1" y="1" width="298" height="118" rx="20"></rect>
                    <text id="DD-(P&amp;P)" font-family="Poppins-SemiBold, Poppins" font-size="16" font-weight="500" fill="#303030">
                        <tspan x="138.528" y="54">DD</tspan>
                        <tspan x="126.288" y="77">(P&amp;P)</tspan>
                    </text>
                </g>
                <g id="Group-6-Copy-2" transform="translate(2019, 254)">
                    <rect id="Rectangle" stroke="#303030" stroke-width="2" fill="#FFFFFF" x="1" y="1" width="298" height="118" rx="20"></rect>
                    <text id="DD-(R&amp;S)" font-family="Poppins-SemiBold, Poppins" font-size="16" font-weight="500" fill="#303030">
                        <tspan x="138.528" y="54">DD</tspan>
                        <tspan x="126.016" y="77">(R&amp;S)</tspan>
                    </text>
                </g>
                <g id="Group-6-Copy-3" transform="translate(2019, 505)">
                    <rect id="Rectangle" stroke="#303030" stroke-width="2" fill="#FFFFFF" x="1" y="1" width="298" height="118" rx="20"></rect>
                    <text id="AD-(R&amp;S)" font-family="Poppins-SemiBold, Poppins" font-size="16" font-weight="500" fill="#303030">
                        <tspan x="138.536" y="54">AD</tspan>
                        <tspan x="126.016" y="77">(R&amp;S)</tspan>
                    </text>
                </g>
                <g id="Group-6-Copy" transform="translate(1241, 0)">
                    <rect id="Rectangle" stroke="#303030" stroke-width="2" fill="#FFFFFF" x="1" y="1" width="298" height="118" rx="20"></rect>
                    <text id="Director" font-family="Poppins-SemiBold, Poppins" font-size="16" font-weight="500" fill="#303030">
                        <tspan x="110.488" y="66">DIRECTOR</tspan>
                    </text>
                </g>
                <line x1="1390.5498" y1="120" x2="1391" y2="188" id="Line-Copy-8" stroke="#303030" stroke-width="2" stroke-linecap="square"></line>
                <path id="Line-Copy-20" d="M612.543158,184.993401 L612.549779,185.99338 L612.906,239.993 L618.907161,239.953964 L612,254 L604.907467,240.04665 L610.907,240.006 L610.549823,186.00662 L610.543202,185.006642 L612.543158,184.993401 Z" fill="#303030" fill-rule="nonzero"></path>
                <path id="Line-Copy-21" d="M2169.54316,184.993401 L2169.54978,185.99338 L2169.906,239.993 L2175.90716,239.953964 L2169,254 L2161.90747,240.04665 L2167.907,240.006 L2167.54982,186.00662 L2167.5432,185.006642 L2169.54316,184.993401 Z" fill="#303030" fill-rule="nonzero"></path>
                <g id="Group-5-Copy" transform="translate(902, 505)">
                    <rect id="Rectangle-Copy-19" stroke="#303030" stroke-width="2" fill="#FFFFFF" x="1" y="1" width="298" height="118" rx="20"></rect>
                    <text id="AD-(P&amp;P)" font-family="Poppins-SemiBold, Poppins" font-size="16" font-weight="500" fill="#303030">
                        <tspan x="138.536" y="54">AD</tspan>
                        <tspan x="126.288" y="77">(P&amp;P)</tspan>
                    </text>
                </g>
                <rect id="Rectangle-Copy-15" stroke="#303030" stroke-width="2" fill="#FFFFFF" x="26" y="505" width="298" height="118" rx="20"></rect>
                <text id="AD-(M&amp;E)" font-family="Poppins-SemiBold, Poppins" font-size="16" font-weight="500" fill="#303030">
                    <tspan x="160.536" y="558">AD</tspan>
                    <tspan x="146.568" y="581">(M&amp;E)</tspan>
                </text>
                <path id="Line-Copy-4" d="M1053.49417,622.994203 L1053.49998,623.994186 L1053.889,690.994 L1059.88942,690.959624 L1052.97093,705.000084 L1045.88966,691.041018 L1051.889,691.006 L1051.50002,624.005814 L1051.4942,623.005831 L1053.49417,622.994203 Z" fill="#303030" fill-rule="nonzero"></path>
                <path id="Line-Copy-5" d="M1053.5,423 L1053.5,490 L1059.5,490 L1052.5,504 L1045.5,490 L1051.5,490 L1051.5,423 L1053.5,423 Z" fill="#303030" fill-rule="nonzero"></path>
                <rect id="Rectangle" fill="#303030" x="175" y="422" width="878" height="2"></rect>
                <rect id="Rectangle-Copy-45" stroke="#303030" stroke-width="2" fill="#FFFFFF" x="571" y="756" width="198" height="118" rx="20"></rect>
                <rect id="Rectangle-Copy-44" stroke="#303030" stroke-width="2" fill="#FFFFFF" x="1135" y="756" width="198" height="118" rx="20"></rect>
                <text id="CAO-(POLICY)" font-family="Poppins-SemiBold, Poppins" font-size="16" font-weight="500" fill="#303030">
                    <tspan x="651.848" y="809">CAO</tspan>
                    <tspan x="633.968" y="832">(POLICY)</tspan>
                </text>
                <text id="CEO-(POLICY)" font-family="Poppins-SemiBold, Poppins" font-size="16" font-weight="500" fill="#303030">
                    <tspan x="1217.32" y="809">CEO</tspan>
                    <tspan x="1197.968" y="832">(POLICY)</tspan>
                </text>
                <g id="Group-8" transform="translate(0, 1147)">
                    <g id="Group-2">
                        <rect id="Rectangle-Copy-58" stroke="#303030" stroke-width="2" fill="#FFFFFF" x="1" y="1" width="158" height="118" rx="20"></rect>
                        <text id="PAO-(M&amp;E)" font-family="Poppins-SemiBold, Poppins" font-size="16" font-weight="500" fill="#303030">
                            <tspan x="63.128" y="54">PAO</tspan>
                            <tspan x="54.568" y="77">(M&amp;E)</tspan>
                        </text>
                        <path id="Line-Copy-10" d="M81.5,119 L81.5,156.777 L86.6648846,156.777778 C87.0906275,156.777778 87.4419611,157.096362 87.4934933,157.508138 L87.5,157.612893 C87.5,157.742541 87.4698147,157.870408 87.4118345,157.986368 L81.2470414,170.315954 C81.0407768,170.728483 80.5391456,170.895694 80.1266165,170.689429 C79.9649988,170.608621 79.8339504,170.477572 79.7531416,170.315954 L73.5883484,157.986368 C73.3820839,157.573839 73.5492943,157.072208 73.9618234,156.865943 C74.0777837,156.807963 74.2056507,156.777778 74.3352983,156.777778 L79.5,156.777 L79.5,119 L81.5,119 Z" fill="#303030" fill-rule="nonzero"></path>
                    </g>
                    <g id="Group-5" transform="translate(190, 0)">
                        <rect id="Rectangle-Copy-57" stroke="#303030" stroke-width="2" fill="#FFFFFF" x="1" y="1" width="158" height="118" rx="20"></rect>
                        <text id="PAO-(M&amp;E)" font-family="Poppins-SemiBold, Poppins" font-size="16" font-weight="500" fill="#303030">
                            <tspan x="63.128" y="54">PAO</tspan>
                            <tspan x="54.568" y="77">(M&amp;E)</tspan>
                        </text>
                        <path id="Line-Copy-11" d="M81.5,119 L81.5,156.777 L86.6648846,156.777778 C87.0906275,156.777778 87.4419611,157.096362 87.4934933,157.508138 L87.5,157.612893 C87.5,157.742541 87.4698147,157.870408 87.4118345,157.986368 L81.2470414,170.315954 C81.0407768,170.728483 80.5391456,170.895694 80.1266165,170.689429 C79.9649988,170.608621 79.8339504,170.477572 79.7531416,170.315954 L73.5883484,157.986368 C73.3820839,157.573839 73.5492943,157.072208 73.9618234,156.865943 C74.0777837,156.807963 74.2056507,156.777778 74.3352983,156.777778 L79.5,156.777 L79.5,119 L81.5,119 Z" fill="#303030" fill-rule="nonzero"></path>
                    </g>
                </g>
                <rect id="Rectangle-Copy-61" stroke="#303030" stroke-width="2" fill="#FFFFFF" x="1155" y="1148" width="158" height="118" rx="20"></rect>
                <text id="PAO-(PLANNING)" font-family="Poppins-SemiBold, Poppins" font-size="16" font-weight="500" fill="#303030">
                    <tspan x="1217.128" y="1199">PAO</tspan>
                    <tspan x="1185.968" y="1222">(PLANNING)</tspan>
                </text>
                <rect id="Rectangle-Copy-62" stroke="#303030" stroke-width="2" fill="#FFFFFF" x="1635" y="1148" width="158" height="118" rx="20"></rect>
                <text id="PEO-(RESEARCH)" font-family="Poppins-SemiBold, Poppins" font-size="16" font-weight="500" fill="#303030">
                    <tspan x="1698.6" y="1201">PEO</tspan>
                    <tspan x="1664.992" y="1224">(RESEARCH)</tspan>
                </text>
                <rect id="Rectangle-Copy-56" stroke="#303030" stroke-width="2" fill="#FFFFFF" x="69" y="756" width="198" height="118" rx="20"></rect>
                <text id="CEO-(M&amp;E)" font-family="Poppins-SemiBold, Poppins" font-size="16" font-weight="500" fill="#303030">
                    <tspan x="151.32" y="809">CEO</tspan>
                    <tspan x="142.568" y="832">(M&amp;E)</tspan>
                </text>
                <rect id="Rectangle" fill="#303030" x="57" y="973" width="231" height="2"></rect>
                <rect id="Rectangle-Copy-3" fill="#303030" x="480" y="1095" width="381" height="2"></rect>
                <rect id="Rectangle-Copy-4" fill="#303030" x="670" y="704" width="564" height="2"></rect>
                <rect id="Rectangle-Copy-2" fill="#303030" x="1714" y="702" width="988" height="2"></rect>
                <rect id="Rectangle-Copy-5" fill="#303030" x="1629" y="1328" width="172" height="2"></rect>
                <rect id="Rectangle-Copy-6" fill="#303030" x="1999" y="1328" width="341" height="2"></rect>
                <rect id="Rectangle-Copy-7" fill="#303030" x="2539" y="1328" width="341" height="2"></rect>
                <path id="Line-Copy-24" d="M288.5,974 L288.5,1133.777 L293.664885,1133.77778 C294.090628,1133.77778 294.441961,1134.09636 294.493493,1134.50814 L294.5,1134.61289 C294.5,1134.74254 294.469815,1134.87041 294.411835,1134.98637 L288.247041,1147.31595 C288.040777,1147.72848 287.539146,1147.89569 287.126617,1147.68943 C286.964999,1147.60862 286.83395,1147.47757 286.753142,1147.31595 L280.588348,1134.98637 C280.382084,1134.57384 280.549294,1134.07221 280.961823,1133.86594 C281.077784,1133.80796 281.205651,1133.77778 281.335298,1133.77778 L286.5,1133.777 L286.5,974 L288.5,974 Z" fill="#303030" fill-rule="nonzero"></path>
                <rect id="Rectangle-Copy-46" stroke="#303030" stroke-width="2" fill="#FFFFFF" x="191" y="1321" width="158" height="118" rx="20"></rect>
                <text id="HEO-(M&amp;E)" font-family="Poppins-SemiBold, Poppins" font-size="16" font-weight="500" fill="#303030">
                    <tspan x="253.728" y="1374">HEO</tspan>
                    <tspan x="244.568" y="1397">(M&amp;E)</tspan>
                </text>
                <path id="Line-Copy-16" d="M671.25958,704.990431 L671.269195,705.990385 L671.603,740.766 L676.768227,740.716895 C677.193951,740.712802 677.548331,741.027993 677.60382,741.439255 L677.611334,741.543942 C677.61258,741.673584 677.583626,741.801735 677.526763,741.918248 L671.480803,754.306538 C671.278515,754.721031 670.778514,754.893057 670.364021,754.690769 C670.201634,754.611518 670.069332,754.481735 669.986973,754.320902 L663.703916,742.05116 C663.493695,741.640633 663.656074,741.137417 664.066601,740.927196 C664.181998,740.868103 664.309569,740.83669 664.439211,740.835443 L669.603,740.785 L669.269288,706.009615 L669.259673,705.009661 L671.25958,704.990431 Z" fill="#303030" fill-rule="nonzero"></path>
                <path id="Line-Copy-32" d="M1235.25958,704.990431 L1235.2692,705.990385 L1235.603,740.766 L1240.76823,740.716895 C1241.19395,740.712802 1241.54833,741.027993 1241.60382,741.439255 L1241.61133,741.543942 C1241.61258,741.673584 1241.58363,741.801735 1241.52676,741.918248 L1235.4808,754.306538 C1235.27851,754.721031 1234.77851,754.893057 1234.36402,754.690769 C1234.20163,754.611518 1234.06933,754.481735 1233.98697,754.320902 L1227.70392,742.05116 C1227.49369,741.640633 1227.65607,741.137417 1228.0666,740.927196 C1228.182,740.868103 1228.30957,740.83669 1228.43921,740.835443 L1233.603,740.785 L1233.26929,706.009615 L1233.25967,705.009661 L1235.25958,704.990431 Z" fill="#303030" fill-rule="nonzero"></path>
                <path id="Line-Copy-25" d="M1715.24995,702.990431 L1715.25957,703.990385 L1715.612,740.768 L1720.77785,740.719207 C1721.20358,740.715113 1721.55796,741.030304 1721.61345,741.441566 L1721.62096,741.546254 C1721.62221,741.675895 1721.59325,741.804047 1721.53639,741.920559 L1715.49043,754.30885 C1715.28814,754.723343 1714.78814,754.895369 1714.37365,754.69308 C1714.21126,754.613829 1714.07896,754.484047 1713.9966,754.323213 L1707.71354,742.053471 C1707.50332,741.642944 1707.6657,741.139729 1708.07623,740.929507 C1708.19162,740.870415 1708.3192,740.839001 1708.44884,740.837755 L1713.613,740.788 L1713.25966,704.009615 L1713.25005,703.009661 L1715.24995,702.990431 Z" fill="#303030" fill-rule="nonzero"></path>
                <path id="Line-Copy-28" d="M1715.24995,873.990431 L1715.25957,874.990385 L1715.612,911.768 L1720.77785,911.719207 C1721.20358,911.715113 1721.55796,912.030304 1721.61345,912.441566 L1721.62096,912.546254 C1721.62221,912.675895 1721.59325,912.804047 1721.53639,912.920559 L1715.49043,925.30885 C1715.28814,925.723343 1714.78814,925.895369 1714.37365,925.69308 C1714.21126,925.613829 1714.07896,925.484047 1713.9966,925.323213 L1707.71354,913.053471 C1707.50332,912.642944 1707.6657,912.139729 1708.07623,911.929507 C1708.19162,911.870415 1708.3192,911.839001 1708.44884,911.837755 L1713.613,911.788 L1713.25966,875.009615 L1713.25005,874.009661 L1715.24995,873.990431 Z" fill="#303030" fill-rule="nonzero"></path>
                <path id="Line-Copy-40" d="M2170.24995,873.990431 L2170.25957,874.990385 L2170.612,911.768 L2175.77785,911.719207 C2176.20358,911.715113 2176.55796,912.030304 2176.61345,912.441566 L2176.62096,912.546254 C2176.62221,912.675895 2176.59325,912.804047 2176.53639,912.920559 L2170.49043,925.30885 C2170.28814,925.723343 2169.78814,925.895369 2169.37365,925.69308 C2169.21126,925.613829 2169.07896,925.484047 2168.9966,925.323213 L2162.71354,913.053471 C2162.50332,912.642944 2162.6657,912.139729 2163.07623,911.929507 C2163.19162,911.870415 2163.3192,911.839001 2163.44884,911.837755 L2168.613,911.788 L2168.25966,875.009615 L2168.25005,874.009661 L2170.24995,873.990431 Z" fill="#303030" fill-rule="nonzero"></path>
                <path id="Line-Copy-29" d="M1715.24995,1045.99043 L1715.25957,1046.99039 L1716.093,1133.766 L1721.2586,1133.7169 C1721.68432,1133.7128 1722.0387,1134.02799 1722.09419,1134.43925 L1722.10171,1134.54394 C1722.10295,1134.67358 1722.074,1134.80174 1722.01714,1134.91825 L1715.97118,1147.30654 C1715.76889,1147.72103 1715.26889,1147.89306 1714.85439,1147.69077 C1714.69201,1147.61152 1714.55971,1147.48174 1714.47735,1147.3209 L1708.19429,1135.05116 C1707.98407,1134.64063 1708.14645,1134.13742 1708.55697,1133.9272 C1708.67237,1133.8681 1708.79994,1133.83669 1708.92958,1133.83544 L1714.093,1133.785 L1713.25966,1047.00961 L1713.25005,1046.00966 L1715.24995,1045.99043 Z" fill="#303030" fill-rule="nonzero"></path>
                <path id="Line-Copy-33" d="M2168.01931,1045.99993 L2170.01931,1046.00007 L2170.01924,1047.00007 L2169.997,1365.778 L2175.1623,1365.7782 C2175.58804,1365.77823 2175.93935,1366.09684 2175.99086,1366.50862 L2175.99736,1366.61337 C2175.99735,1366.74302 2175.96715,1366.87089 2175.90916,1366.98684 L2169.74353,1379.31601 C2169.53723,1379.72852 2169.03559,1379.8957 2168.62308,1379.6894 C2168.46146,1379.60858 2168.33043,1379.47753 2168.24963,1379.3159 L2162.08568,1366.98589 C2161.87944,1366.57335 2162.04669,1366.07173 2162.45923,1365.8655 C2162.57519,1365.80752 2162.70306,1365.77735 2162.83271,1365.77736 L2167.997,1365.777 L2168.01924,1046.99993 L2168.01931,1045.99993 Z" fill="#303030" fill-rule="nonzero"></path>
                <path id="Line-Copy-34" d="M2702.01634,1045.99711 L2702.01924,1046.9971 L2702.942,1365.774 L2708.10732,1365.75998 C2708.53307,1365.75875 2708.88532,1366.07631 2708.93804,1366.48794 L2708.94485,1366.59267 C2708.94523,1366.72232 2708.91542,1366.85027 2708.85777,1366.9664 L2702.72871,1379.31379 C2702.52364,1379.72691 2702.0225,1379.89558 2701.60937,1379.69051 C2701.44752,1379.61017 2701.31609,1379.4795 2701.23482,1379.31812 L2695.03434,1367.00644 C2694.82688,1366.59451 2694.99264,1366.09239 2695.40457,1365.88493 C2695.52036,1365.82662 2695.64814,1365.79606 2695.77779,1365.79569 L2700.942,1365.78 L2700.01925,1047.0029 L2700.01635,1046.0029 L2702.01634,1045.99711 Z" fill="#303030" fill-rule="nonzero"></path>
                <path id="Line-Copy-26" d="M2169.99058,623.990672 L2169.99996,624.990628 L2171.084,740.767 L2176.24966,740.718481 C2176.67539,740.714491 2177.02969,741.029769 2177.08508,741.441044 L2177.09257,741.545733 C2177.09378,741.675375 2177.0648,741.803519 2177.00791,741.920018 L2170.95893,754.306837 C2170.75654,754.721281 2170.2565,754.893185 2169.84206,754.690795 C2169.67969,754.611505 2169.54742,754.48169 2169.4651,754.320837 L2163.18503,742.049565 C2162.97491,741.638988 2163.13741,741.135811 2163.54799,740.92569 C2163.6634,740.866625 2163.79098,740.835243 2163.92062,740.834028 L2169.084,740.785 L2168.00004,625.009372 L2167.99067,624.009415 L2169.99058,623.990672 Z" fill="#303030" fill-rule="nonzero"></path>
                <path id="Line-Copy-39" d="M2702.24995,702.990431 L2702.25957,703.990385 L2702.612,740.768 L2707.77785,740.719207 C2708.20358,740.715113 2708.55796,741.030304 2708.61345,741.441566 L2708.62096,741.546254 C2708.62221,741.675895 2708.59325,741.804047 2708.53639,741.920559 L2702.49043,754.30885 C2702.28814,754.723343 2701.78814,754.895369 2701.37365,754.69308 C2701.21126,754.613829 2701.07896,754.484047 2700.9966,754.323213 L2694.71354,742.053471 C2694.50332,741.642944 2694.6657,741.139729 2695.07623,740.929507 C2695.19162,740.870415 2695.3192,740.839001 2695.44884,740.837755 L2700.613,740.788 L2700.25966,704.009615 L2700.25005,703.009661 L2702.24995,702.990431 Z" fill="#303030" fill-rule="nonzero"></path>
                <rect id="Rectangle-Copy-51" stroke="#303030" stroke-width="2" fill="#FFFFFF" x="571" y="928" width="198" height="118" rx="20"></rect>
                <text id="ACAO-(POLICY)" font-family="Poppins-SemiBold, Poppins" font-size="16" font-weight="500" fill="#303030">
                    <tspan x="646.12" y="981">ACAO</tspan>
                    <tspan x="633.968" y="1004">(POLICY)</tspan>
                </text>
                <rect id="Rectangle-Copy-59" stroke="#303030" stroke-width="2" fill="#FFFFFF" x="1135" y="928" width="198" height="118" rx="20"></rect>
                <text id="ACAO-(planning)" font-family="Poppins-SemiBold, Poppins" font-size="16" font-weight="500" fill="#303030">
                    <tspan x="1210.12" y="981">ACAO</tspan>
                    <tspan x="1185.968" y="1004">(PLANNING)</tspan>
                </text>
                <g id="Group" transform="translate(400, 1147)">
                    <rect id="Rectangle-Copy-53" stroke="#303030" stroke-width="2" fill="#FFFFFF" x="1" y="1" width="158" height="118" rx="20"></rect>
                    <rect id="Rectangle-Copy-60" stroke="#303030" stroke-width="2" fill="#FFFFFF" x="191" y="1" width="158" height="118" rx="20"></rect>
                    <text id="SPO-(POLICY)" font-family="Poppins-SemiBold, Poppins" font-size="16" font-weight="500" fill="#303030">
                        <tspan x="253.984" y="54">SPO</tspan>
                        <tspan x="233.968" y="77">(POLICY)</tspan>
                    </text>
                    <text id="SAOI-(POLICY)" font-family="Poppins-SemiBold, Poppins" font-size="16" font-weight="500" fill="#303030">
                        <tspan x="60.896" y="54">SAOI</tspan>
                        <tspan x="43.968" y="77">(POLICY)</tspan>
                    </text>
                    <rect id="Rectangle-Copy-54" stroke="#303030" stroke-width="2" fill="#FFFFFF" x="381" y="1" width="158" height="118" rx="20"></rect>
                    <text id="SAOII-(POLICY)" font-family="Poppins-SemiBold, Poppins" font-size="16" font-weight="500" fill="#303030">
                        <tspan x="439.172" y="54">SAOII</tspan>
                        <tspan x="424.468" y="77">(POLICY)</tspan>
                    </text>
                </g>
                <path id="Line-Copy-11" d="M1235.5,1266 L1235.5,1365.777 L1240.66488,1365.77778 C1241.09063,1365.77778 1241.44196,1366.09636 1241.49349,1366.50814 L1241.5,1366.61289 C1241.5,1366.74254 1241.46981,1366.87041 1241.41183,1366.98637 L1235.24704,1379.31595 C1235.04078,1379.72848 1234.53915,1379.89569 1234.12662,1379.68943 C1233.965,1379.60862 1233.83395,1379.47757 1233.75314,1379.31595 L1227.58835,1366.98637 C1227.38208,1366.57384 1227.54929,1366.07221 1227.96182,1365.86594 C1228.07778,1365.80796 1228.20565,1365.77778 1228.3353,1365.77778 L1233.5,1365.777 L1233.5,1266 L1235.5,1266 Z" fill="#303030" fill-rule="nonzero"></path>
                <line x1="1714.5" y1="1267" x2="1714.97619" y2="1327.00009" id="Line-Copy-12" stroke="#303030" stroke-width="2" stroke-linecap="square" stroke-linejoin="round"></line>
                <path id="Line-Copy-13" d="M1630.5,1328 L1630.5,1365.777 L1635.66488,1365.77778 C1636.09063,1365.77778 1636.44196,1366.09636 1636.49349,1366.50814 L1636.5,1366.61289 C1636.5,1366.74254 1636.46981,1366.87041 1636.41183,1366.98637 L1630.24704,1379.31595 C1630.04078,1379.72848 1629.53915,1379.89569 1629.12662,1379.68943 C1628.965,1379.60862 1628.83395,1379.47757 1628.75314,1379.31595 L1622.58835,1366.98637 C1622.38208,1366.57384 1622.54929,1366.07221 1622.96182,1365.86594 C1623.07778,1365.80796 1623.20565,1365.77778 1623.3353,1365.77778 L1628.5,1365.777 L1628.5,1328 L1630.5,1328 Z" fill="#303030" fill-rule="nonzero"></path>
                <path id="Line-Copy-14" d="M1800.5,1328 L1800.5,1365.777 L1805.66488,1365.77778 C1806.09063,1365.77778 1806.44196,1366.09636 1806.49349,1366.50814 L1806.5,1366.61289 C1806.5,1366.74254 1806.46981,1366.87041 1806.41183,1366.98637 L1800.24704,1379.31595 C1800.04078,1379.72848 1799.53915,1379.89569 1799.12662,1379.68943 C1798.965,1379.60862 1798.83395,1379.47757 1798.75314,1379.31595 L1792.58835,1366.98637 C1792.38208,1366.57384 1792.54929,1366.07221 1792.96182,1365.86594 C1793.07778,1365.80796 1793.20565,1365.77778 1793.3353,1365.77778 L1798.5,1365.777 L1798.5,1328 L1800.5,1328 Z" fill="#303030" fill-rule="nonzero"></path>
                <path id="Line-Copy-35" d="M2000.5,1328 L2000.5,1365.777 L2005.66488,1365.77778 C2006.09063,1365.77778 2006.44196,1366.09636 2006.49349,1366.50814 L2006.5,1366.61289 C2006.5,1366.74254 2006.46981,1366.87041 2006.41183,1366.98637 L2000.24704,1379.31595 C2000.04078,1379.72848 1999.53915,1379.89569 1999.12662,1379.68943 C1998.965,1379.60862 1998.83395,1379.47757 1998.75314,1379.31595 L1992.58835,1366.98637 C1992.38208,1366.57384 1992.54929,1366.07221 1992.96182,1365.86594 C1993.07778,1365.80796 1993.20565,1365.77778 1993.3353,1365.77778 L1998.5,1365.777 L1998.5,1328 L2000.5,1328 Z" fill="#303030" fill-rule="nonzero"></path>
                <path id="Line-Copy-36" d="M2540.5,1328 L2540.5,1365.777 L2545.66488,1365.77778 C2546.09063,1365.77778 2546.44196,1366.09636 2546.49349,1366.50814 L2546.5,1366.61289 C2546.5,1366.74254 2546.46981,1366.87041 2546.41183,1366.98637 L2540.24704,1379.31595 C2540.04078,1379.72848 2539.53915,1379.89569 2539.12662,1379.68943 C2538.965,1379.60862 2538.83395,1379.47757 2538.75314,1379.31595 L2532.58835,1366.98637 C2532.38208,1366.57384 2532.54929,1366.07221 2532.96182,1365.86594 C2533.07778,1365.80796 2533.20565,1365.77778 2533.3353,1365.77778 L2538.5,1365.777 L2538.5,1328 L2540.5,1328 Z" fill="#303030" fill-rule="nonzero"></path>
                <path id="Line-Copy-37" d="M2340.5,1328 L2340.5,1365.777 L2345.66488,1365.77778 C2346.09063,1365.77778 2346.44196,1366.09636 2346.49349,1366.50814 L2346.5,1366.61289 C2346.5,1366.74254 2346.46981,1366.87041 2346.41183,1366.98637 L2340.24704,1379.31595 C2340.04078,1379.72848 2339.53915,1379.89569 2339.12662,1379.68943 C2338.965,1379.60862 2338.83395,1379.47757 2338.75314,1379.31595 L2332.58835,1366.98637 C2332.38208,1366.57384 2332.54929,1366.07221 2332.96182,1365.86594 C2333.07778,1365.80796 2333.20565,1365.77778 2333.3353,1365.77778 L2338.5,1365.777 L2338.5,1328 L2340.5,1328 Z" fill="#303030" fill-rule="nonzero"></path>
                <path id="Line-Copy-38" d="M2881.5,1328 L2881.5,1365.777 L2886.66488,1365.77778 C2887.09063,1365.77778 2887.44196,1366.09636 2887.49349,1366.50814 L2887.5,1366.61289 C2887.5,1366.74254 2887.46981,1366.87041 2887.41183,1366.98637 L2881.24704,1379.31595 C2881.04078,1379.72848 2880.53915,1379.89569 2880.12662,1379.68943 C2879.965,1379.60862 2879.83395,1379.47757 2879.75314,1379.31595 L2873.58835,1366.98637 C2873.38208,1366.57384 2873.54929,1366.07221 2873.96182,1365.86594 C2874.07778,1365.80796 2874.20565,1365.77778 2874.3353,1365.77778 L2879.5,1365.777 L2879.5,1328 L2881.5,1328 Z" fill="#303030" fill-rule="nonzero"></path>
                <g id="Group-10" transform="translate(964, 1380)">
                    <rect id="Rectangle-Copy-53" stroke="#303030" stroke-width="2" fill="#FFFFFF" x="1" y="1" width="158" height="118" rx="20"></rect>
                    <rect id="Rectangle-Copy-60" stroke="#303030" stroke-width="2" fill="#FFFFFF" x="191" y="1" width="158" height="118" rx="20"></rect>
                    <text id="SAOII-(PLANNING)" font-family="Poppins-SemiBold, Poppins" font-size="16" font-weight="500" fill="#303030">
                        <tspan x="248.672" y="54">SAOII</tspan>
                        <tspan x="221.968" y="77">(PLANNING)</tspan>
                    </text>
                    <text id="SAOI-(PLANNING)" font-family="Poppins-SemiBold, Poppins" font-size="16" font-weight="500" fill="#303030">
                        <tspan x="60.896" y="54">SAOI</tspan>
                        <tspan x="31.968" y="77">(PLANNING)</tspan>
                    </text>
                    <rect id="Rectangle-Copy-54" stroke="#303030" stroke-width="2" fill="#FFFFFF" x="381" y="1" width="158" height="118" rx="20"></rect>
                    <text id="SCE-(PLANNING)" font-family="Poppins-SemiBold, Poppins" font-size="16" font-weight="500" fill="#303030">
                        <tspan x="445.228" y="54">SCE</tspan>
                        <tspan x="412.468" y="77">(PLANNING)</tspan>
                    </text>
                </g>
                <path id="Line-Copy-15" d="M671.5,876 L671.5,913.777 L676.664885,913.777778 C677.090628,913.777778 677.441961,914.096362 677.493493,914.508138 L677.5,914.612893 C677.5,914.742541 677.469815,914.870408 677.411835,914.986368 L671.247041,927.315954 C671.040777,927.728483 670.539146,927.895694 670.126617,927.689429 C669.964999,927.608621 669.83395,927.477572 669.753142,927.315954 L663.588348,914.986368 C663.382084,914.573839 663.549294,914.072208 663.961823,913.865943 C664.077784,913.807963 664.205651,913.777778 664.335298,913.777778 L669.5,913.777 L669.5,876 L671.5,876 Z" fill="#303030" fill-rule="nonzero"></path>
                <path id="Line-Copy-17" d="M1235.5,876 L1235.5,913.777 L1240.66488,913.777778 C1241.09063,913.777778 1241.44196,914.096362 1241.49349,914.508138 L1241.5,914.612893 C1241.5,914.742541 1241.46981,914.870408 1241.41183,914.986368 L1235.24704,927.315954 C1235.04078,927.728483 1234.53915,927.895694 1234.12662,927.689429 C1233.965,927.608621 1233.83395,927.477572 1233.75314,927.315954 L1227.58835,914.986368 C1227.38208,914.573839 1227.54929,914.072208 1227.96182,913.865943 C1228.07778,913.807963 1228.20565,913.777778 1228.3353,913.777778 L1233.5,913.777 L1233.5,876 L1235.5,876 Z" fill="#303030" fill-rule="nonzero"></path>
                <path id="Line-Copy-22" d="M671.5,1046 L671.5,1131.777 L676.664885,1131.77778 C677.090628,1131.77778 677.441961,1132.09636 677.493493,1132.50814 L677.5,1132.61289 C677.5,1132.74254 677.469815,1132.87041 677.411835,1132.98637 L671.247041,1145.31595 C671.040777,1145.72848 670.539146,1145.89569 670.126617,1145.68943 C669.964999,1145.60862 669.83395,1145.47757 669.753142,1145.31595 L663.588348,1132.98637 C663.382084,1132.57384 663.549294,1132.07221 663.961823,1131.86594 C664.077784,1131.80796 664.205651,1131.77778 664.335298,1131.77778 L669.5,1131.777 L669.5,1046 L671.5,1046 Z" fill="#303030" fill-rule="nonzero"></path>
                <path id="Line-Copy-18" d="M1235.49499,1045.99501 L1235.49999,1046.995 L1235.923,1131.773 L1241.0887,1131.74714 C1241.51444,1131.74502 1241.86736,1132.06184 1241.92095,1132.47335 L1241.92798,1132.57807 C1241.92863,1132.70772 1241.89908,1132.83574 1241.84168,1132.95198 L1235.73861,1145.31224 C1235.53441,1145.7258 1235.03362,1145.89551 1234.62007,1145.69131 C1234.45805,1145.61131 1234.32635,1145.48092 1234.24473,1145.31971 L1228.01837,1133.0211 C1227.81004,1132.60961 1227.97474,1132.10715 1228.38624,1131.89882 C1228.5019,1131.84026 1228.62962,1131.80944 1228.75927,1131.80879 L1233.923,1131.782 L1233.50001,1047.005 L1233.49501,1046.00501 L1235.49499,1045.99501 Z" fill="#303030" fill-rule="nonzero"></path>
                <path id="Line-Copy-30" d="M481.5,1095 L481.5,1132.777 L486.664885,1132.77778 C487.090628,1132.77778 487.441961,1133.09636 487.493493,1133.50814 L487.5,1133.61289 C487.5,1133.74254 487.469815,1133.87041 487.411835,1133.98637 L481.247041,1146.31595 C481.040777,1146.72848 480.539146,1146.89569 480.126617,1146.68943 C479.964999,1146.60862 479.83395,1146.47757 479.753142,1146.31595 L473.588348,1133.98637 C473.382084,1133.57384 473.549294,1133.07221 473.961823,1132.86594 C474.077784,1132.80796 474.205651,1132.77778 474.335298,1132.77778 L479.5,1132.777 L479.5,1095 L481.5,1095 Z" fill="#303030" fill-rule="nonzero"></path>
                <path id="Line-Copy-31" d="M861.5,1095 L861.5,1132.777 L866.664885,1132.77778 C867.090628,1132.77778 867.441961,1133.09636 867.493493,1133.50814 L867.5,1133.61289 C867.5,1133.74254 867.469815,1133.87041 867.411835,1133.98637 L861.247041,1146.31595 C861.040777,1146.72848 860.539146,1146.89569 860.126617,1146.68943 C859.964999,1146.60862 859.83395,1146.47757 859.753142,1146.31595 L853.588348,1133.98637 C853.382084,1133.57384 853.549294,1133.07221 853.961823,1132.86594 C854.077784,1132.80796 854.205651,1132.77778 854.335298,1132.77778 L859.5,1132.777 L859.5,1095 L861.5,1095 Z" fill="#303030" fill-rule="nonzero"></path>
                <g id="Group-4" transform="translate(1614, 755)">
                    <g id="Group-3">
                        <rect id="Rectangle-Copy-55" stroke="#303030" stroke-width="2" fill="#FFFFFF" x="1" y="1" width="198" height="118" rx="20"></rect>
                        <text id="CEO-(RESEARCH)" font-family="Poppins-SemiBold, Poppins" font-size="16" font-weight="500" fill="#303030">
                            <tspan x="83.32" y="54">CEO</tspan>
                            <tspan x="50.992" y="77">(RESEARCH)</tspan>
                        </text>
                    </g>
                    <g id="Group-3-Copy" transform="translate(455, 0)">
                        <rect id="Rectangle-Copy-55" stroke="#303030" stroke-width="2" fill="#FFFFFF" x="1" y="1" width="198" height="118" rx="20"></rect>
                        <text id="CEO-(library)" font-family="Poppins-SemiBold, Poppins" font-size="16" font-weight="500" fill="#303030">
                            <tspan x="83.32" y="54">CEO</tspan>
                            <tspan x="60.128" y="77">(LIBRARY)</tspan>
                        </text>
                    </g>
                    <g id="Group-7" transform="translate(987, 0)">
                        <rect id="Rectangle-Copy-55" stroke="#303030" stroke-width="2" fill="#FFFFFF" x="1" y="1" width="198" height="118" rx="20"></rect>
                        <text id="ceo-(statistics)" font-family="Poppins-SemiBold, Poppins" font-size="16" font-weight="500" fill="#303030">
                            <tspan x="83.32" y="54">CEO</tspan>
                            <tspan x="47.456" y="77">(STATISTICS)</tspan>
                        </text>
                    </g>
                </g>
                <g id="Group-4-Copy" transform="translate(1614, 927)">
                    <g id="Group-3">
                        <rect id="Rectangle-Copy-55" stroke="#303030" stroke-width="2" fill="#FFFFFF" x="1" y="1" width="198" height="118" rx="20"></rect>
                        <text id="ACEO-(RESEARCH)" font-family="Poppins-SemiBold, Poppins" font-size="16" font-weight="500" fill="#303030">
                            <tspan x="77.592" y="54">ACEO</tspan>
                            <tspan x="50.992" y="77">(RESEARCH)</tspan>
                        </text>
                    </g>
                    <g id="Group-3-Copy" transform="translate(455, 0)">
                        <rect id="Rectangle-Copy-55" stroke="#303030" stroke-width="2" fill="#FFFFFF" x="1" y="1" width="198" height="118" rx="20"></rect>
                        <text id="ACA-(library)" font-family="Poppins-SemiBold, Poppins" font-size="16" font-weight="500" fill="#303030">
                            <tspan x="82.4" y="54">ACA</tspan>
                            <tspan x="60.128" y="77">(LIBRARY)</tspan>
                        </text>
                    </g>
                    <g id="Group-7" transform="translate(987, 0)">
                        <rect id="Rectangle-Copy-55" stroke="#303030" stroke-width="2" fill="#FFFFFF" x="1" y="1" width="198" height="118" rx="20"></rect>
                        <text id="PPO-(statistics)" font-family="Poppins-SemiBold, Poppins" font-size="16" font-weight="500" fill="#303030">
                            <tspan x="83.992" y="54">PPO</tspan>
                            <tspan x="47.456" y="77">(STATISTICS)</tspan>
                        </text>
                    </g>
                </g>
                <g id="Group-11" transform="translate(1924, 1380)">
                    <g id="Group-3">
                        <rect id="Rectangle-Copy-55" stroke="#303030" stroke-width="2" fill="#FFFFFF" x="1" y="1" width="148" height="118" rx="20"></rect>
                        <text id="SAO-(Library)" font-family="Poppins-SemiBold, Poppins" font-size="16" font-weight="500" fill="#303030">
                            <tspan x="58.12" y="54">SAO</tspan>
                            <tspan x="35.128" y="77">(LIBRARY)</tspan>
                        </text>
                    </g>
                    <g id="Group-3-Copy" transform="translate(170, 0)">
                        <rect id="Rectangle-Copy-55" stroke="#303030" stroke-width="2" fill="#FFFFFF" x="1" y="1" width="148" height="118" rx="20"></rect>
                        <text id="SPO-(Library)" font-family="Poppins-SemiBold, Poppins" font-size="16" font-weight="500" fill="#303030">
                            <tspan x="58.984" y="54">SPO</tspan>
                            <tspan x="35.128" y="77">(LIBRARY)</tspan>
                        </text>
                    </g>
                    <g id="Group-7" transform="translate(340, 0)">
                        <rect id="Rectangle-Copy-55" stroke="#303030" stroke-width="2" fill="#FFFFFF" x="1" y="1" width="148" height="118" rx="20"></rect>
                        <text id="SA-(Library)" font-family="Poppins-SemiBold, Poppins" font-size="16" font-weight="500" fill="#303030">
                            <tspan x="64.4" y="54">SA</tspan>
                            <tspan x="35.128" y="77">(LIBRARY)</tspan>
                        </text>
                    </g>
                </g>
                <g id="Group-9" transform="translate(1554, 1380)">
                    <g id="Group-3-Copy-3">
                        <rect id="Rectangle-Copy-55" stroke="#303030" stroke-width="2" fill="#FFFFFF" x="1" y="1" width="148" height="118" rx="20"></rect>
                        <text id="SAOI-(RESEARCH)" font-family="Poppins-SemiBold, Poppins" font-size="16" font-weight="500" fill="#303030">
                            <tspan x="55.896" y="54">SAOI</tspan>
                            <tspan x="25.992" y="77">(RESEARCH)</tspan>
                        </text>
                    </g>
                    <g id="Group-3-Copy-2" transform="translate(170, 0)">
                        <rect id="Rectangle-Copy-55" stroke="#303030" stroke-width="2" fill="#FFFFFF" x="1" y="1" width="148" height="118" rx="20"></rect>
                        <text id="SAOII-(RESEARCH)" font-family="Poppins-SemiBold, Poppins" font-size="16" font-weight="500" fill="#303030">
                            <tspan x="53.672" y="54">SAOII</tspan>
                            <tspan x="25.992" y="77">(RESEARCH)</tspan>
                        </text>
                    </g>
                </g>
                <g id="Group-12" transform="translate(2464, 1380)">
                    <g id="Group-3-Copy-5">
                        <rect id="Rectangle-Copy-55" stroke="#303030" stroke-width="2" fill="#FFFFFF" x="1" y="1" width="148" height="118" rx="20"></rect>
                        <text id="SAOI-(STATISTICS)" font-family="Poppins-SemiBold, Poppins" font-size="16" font-weight="500" fill="#303030">
                            <tspan x="55.896" y="54">SAOI</tspan>
                            <tspan x="22.456" y="77">(STATISTICS)</tspan>
                        </text>
                    </g>
                    <g id="Group-3-Copy-4" transform="translate(170, 0)">
                        <rect id="Rectangle-Copy-55" stroke="#303030" stroke-width="2" fill="#FFFFFF" x="1" y="1" width="148" height="118" rx="20"></rect>
                        <text id="SAOII-(STATISTICS)" font-family="Poppins-SemiBold, Poppins" font-size="16" font-weight="500" fill="#303030">
                            <tspan x="53.672" y="54">SAOII</tspan>
                            <tspan x="22.456" y="77">(STATISTICS)</tspan>
                        </text>
                    </g>
                    <g id="Group-7-Copy" transform="translate(340, 0)">
                        <rect id="Rectangle-Copy-55" stroke="#303030" stroke-width="2" fill="#FFFFFF" x="1" y="1" width="148" height="118" rx="20"></rect>
                        <text id="SEO-(STATISTICS)" font-family="Poppins-SemiBold, Poppins" font-size="16" font-weight="500" fill="#303030">
                            <tspan x="59.592" y="54">SEO</tspan>
                            <tspan x="22.456" y="77">(STATISTICS)</tspan>
                        </text>
                    </g>
                </g>
                <line x1="611" y1="374" x2="611" y2="424" id="Line-Copy-6" stroke="#303030" stroke-width="2" stroke-linecap="square"></line>
                <rect id="Rectangle-Copy" fill="#303030" x="611" y="185" width="1559" height="2"></rect>
                <path id="Line-Copy-19" d="M2169.99615,372.996161 L2169.99999,373.996154 L2170.446,489.996 L2176.4461,489.973181 L2169.5,504 L2162.44621,490.027026 L2168.446,490.004 L2168.00001,374.003846 L2167.99616,373.003854 L2169.99615,372.996161 Z" fill="#303030" fill-rule="nonzero"></path>
                <path id="Line-Copy" d="M176.5,423 L176.5,490 L182.5,490 L175.5,504 L168.5,490 L174.5,490 L174.5,423 L176.5,423 Z" fill="#303030" fill-rule="nonzero"></path>
                <path id="Line-Copy-2" d="M173.5,623 L173.5,740 L179.5,740 L172.5,754 L165.5,740 L171.5,740 L171.5,623 L173.5,623 Z" fill="#303030" fill-rule="nonzero"></path>
                <line x1="167.5" y1="875" x2="167.5" y2="973" id="Line-Copy-9" stroke="#303030" stroke-width="2" stroke-linecap="square" stroke-linejoin="round"></line>
                <path id="Line-Copy-23" d="M58.5,974 L58.5,1133.777 L63.6648846,1133.77778 C64.0906275,1133.77778 64.4419611,1134.09636 64.4934933,1134.50814 L64.5,1134.61289 C64.5,1134.74254 64.4698147,1134.87041 64.4118345,1134.98637 L58.2470414,1147.31595 C58.0407768,1147.72848 57.5391456,1147.89569 57.1266165,1147.68943 C56.9649988,1147.60862 56.8339504,1147.47757 56.7531416,1147.31595 L50.5883484,1134.98637 C50.3820839,1134.57384 50.5492943,1134.07221 50.9618234,1133.86594 C51.0777837,1133.80796 51.2056507,1133.77778 51.3352983,1133.77778 L56.5,1133.777 L56.5,974 L58.5,974 Z" fill="#303030" fill-rule="nonzero"></path>
                <rect id="Rectangle-Copy-47" stroke="#303030" stroke-width="2" fill="#FFFFFF" x="1" y="1321" width="158" height="118" rx="20"></rect>
                <text id="SPO-(M&amp;E)" font-family="Poppins-SemiBold, Poppins" font-size="16" font-weight="500" fill="#303030">
                    <tspan x="63.984" y="1374">SPO</tspan>
                    <tspan x="54.568" y="1397">(M&amp;E)</tspan>
                </text>
            </g>
        </g>
    </g>
</svg>