<?xml version="1.0" standalone="no"?>
<!DOCTYPE svg PUBLIC "-//W3C//DTD SVG 20010904//EN"
 "http://www.w3.org/TR/2001/REC-SVG-20010904/DTD/svg10.dtd">
<svg version="1.0" xmlns="http://www.w3.org/2000/svg"
 width="674.000000pt" height="674.000000pt" viewBox="0 0 674.000000 674.000000"
 preserveAspectRatio="xMidYMid meet">
<metadata>
Created by potrace 1.14, written by Peter Selinger 2001-2017
</metadata>
<g transform="translate(0.000000,674.000000) scale(0.100000,-0.100000)"
fill="#000000" stroke="none">
<path d="M3095 6709 c-201 -22 -217 -24 -300 -39 -27 -5 -61 -12 -75 -14 -406
-71 -909 -286 -1272 -543 -297 -210 -614 -524 -801 -793 -337 -484 -520 -950
-601 -1535 -21 -151 -28 -502 -14 -690 80 -1058 690 -2039 1612 -2595 407
-245 834 -392 1326 -456 197 -25 635 -25 805 1 17 2 48 7 70 9 22 3 54 8 70
11 17 3 44 7 60 10 71 12 250 53 310 71 374 114 664 249 949 442 370 250 678
558 920 922 104 155 129 200 217 375 157 315 275 696 315 1010 3 22 7 49 9 60
19 96 27 555 12 709 -19 194 -45 349 -89 521 -27 110 -96 332 -118 380 -5 11
-27 65 -50 119 -255 610 -723 1161 -1285 1512 -155 97 -156 97 -295 168 -272
138 -657 267 -900 301 -25 4 -63 10 -85 15 -22 4 -71 11 -110 15 -38 4 -83 9
-100 12 -56 8 -510 9 -580 2z m615 -43 c14 -3 50 -8 80 -11 218 -22 558 -110
820 -215 508 -202 996 -563 1335 -990 33 -41 64 -79 68 -85 5 -5 36 -50 71
-98 177 -250 333 -563 433 -867 33 -101 87 -302 97 -365 3 -16 10 -55 16 -85
33 -169 45 -327 45 -590 0 -186 -10 -393 -20 -410 -1 -3 -6 -30 -9 -61 -4 -31
-9 -67 -11 -80 -3 -13 -8 -37 -11 -54 -131 -726 -552 -1444 -1124 -1919 -52
-43 -105 -86 -116 -96 -12 -10 -70 -51 -130 -93 -369 -254 -765 -424 -1202
-517 -75 -16 -162 -32 -192 -35 -30 -4 -102 -13 -160 -20 -100 -12 -590 -13
-665 -1 -16 3 -57 8 -90 11 -101 11 -354 64 -480 100 -471 135 -904 369 -1270
688 -190 166 -413 417 -561 632 -238 345 -420 774 -504 1184 -16 80 -32 169
-35 196 -4 28 -8 61 -11 75 -27 156 -26 648 1 840 76 536 270 1036 565 1458
38 53 72 102 77 107 5 6 26 33 48 60 188 237 444 480 681 647 168 118 396 248
564 321 36 16 74 33 85 38 113 51 400 140 560 175 67 15 176 35 215 40 25 3
55 7 66 9 12 2 61 6 110 10 49 4 91 9 93 11 7 6 533 -4 561 -10z"/>
<path d="M3132 6560 c-18 -4 -35 -10 -38 -13 -3 -2 -16 -46 -30 -98 -13 -51
-26 -95 -28 -97 -2 -2 -27 40 -56 93 -45 84 -55 96 -74 91 -11 -3 -29 -6 -40
-6 -17 0 -18 -6 -12 -67 4 -38 9 -97 12 -133 9 -86 15 -98 54 -92 l31 4 -6 57
c-4 31 -9 64 -11 74 -3 9 -1 17 3 17 5 0 24 -32 43 -70 31 -64 36 -70 62 -68
24 2 30 9 42 48 8 25 18 62 22 83 3 21 8 36 11 34 5 -6 12 -46 15 -87 2 -55
12 -67 48 -62 31 4 31 5 26 51 -3 25 -11 89 -16 141 -6 52 -14 97 -18 101 -4
3 -22 3 -40 -1z"/>
<path d="M3289 6543 c-7 -202 -6 -263 5 -264 6 0 21 -2 34 -5 12 -2 22 -1 23
4 1 4 2 37 3 74 1 37 5 70 8 73 3 3 16 -30 30 -72 23 -73 26 -78 55 -81 30 -3
32 0 57 65 40 103 44 105 42 14 l-3 -81 37 0 37 0 2 137 c1 75 4 141 7 145 3
4 -6 9 -20 9 -14 1 -35 2 -47 2 -18 1 -28 -15 -62 -95 -22 -53 -43 -95 -47
-93 -3 2 -21 46 -40 99 l-35 96 -42 0 c-40 0 -43 -2 -44 -27z"/>
<path d="M3725 6538 c-2 -7 -9 -54 -15 -104 -9 -76 -9 -97 3 -126 34 -80 169
-91 216 -16 13 21 28 92 37 174 4 41 2 54 -8 55 -7 0 -23 2 -34 3 -19 2 -22
-5 -34 -83 -15 -104 -29 -131 -70 -131 -45 0 -52 29 -35 135 8 48 12 92 9 96
-8 14 -64 11 -69 -3z"/>
<path d="M4036 6354 c-20 -75 -35 -138 -34 -138 2 -1 15 -7 31 -14 32 -14 34
-11 65 98 l19 65 32 -102 c32 -100 33 -103 67 -109 19 -3 36 -5 38 -3 2 2 18
60 36 129 18 69 35 130 37 137 3 7 -9 16 -29 21 -36 9 -44 4 -52 -39 -12 -66
-29 -119 -36 -112 -4 4 -20 49 -35 100 -22 71 -33 93 -49 97 -50 14 -52 11
-90 -130z"/>
<path d="M2562 6460 c-45 -28 -72 -76 -72 -130 0 -114 109 -181 213 -131 61
29 81 63 81 131 1 62 -27 111 -76 136 -39 20 -107 17 -146 -6z m125 -62 c7 -6
17 -26 22 -45 17 -62 -14 -103 -77 -103 -48 0 -82 58 -68 116 11 44 84 63 123
32z"/>
<path d="M4411 6371 c-15 -37 -71 -191 -81 -223 -7 -24 -5 -28 23 -37 17 -6
34 -8 37 -4 4 5 28 67 53 139 l45 131 -33 10 c-31 10 -34 9 -44 -16z"/>
<path d="M2261 6368 c-75 -20 -114 -70 -114 -145 0 -54 38 -114 86 -137 86
-40 207 28 207 116 0 26 -1 27 -27 16 -16 -7 -42 -27 -59 -45 -39 -40 -72 -42
-108 -7 -61 61 -9 164 69 134 25 -9 85 4 85 19 0 16 -40 43 -72 50 -18 4 -48
4 -67 -1z"/>
<path d="M4590 6289 c-96 -40 -128 -166 -60 -238 53 -55 141 -65 196 -22 l26
20 -34 14 c-18 7 -51 12 -73 9 -30 -3 -45 1 -57 15 -46 50 -13 135 54 141 27
2 41 -2 57 -19 11 -12 18 -26 15 -30 -5 -8 47 -39 66 -39 14 0 13 34 -4 74
-27 64 -121 102 -186 75z"/>
<path d="M1840 6176 c-44 -25 -74 -49 -72 -56 3 -11 118 -225 128 -239 4 -4
64 20 64 26 0 2 -11 26 -25 53 -14 27 -25 51 -25 54 0 2 16 11 35 20 37 18 44
36 20 56 -12 10 -21 8 -50 -9 l-35 -20 -14 27 c-14 28 -14 28 35 56 27 15 49
29 49 32 0 11 -21 44 -28 44 -4 -1 -41 -20 -82 -44z"/>
<path d="M3165 6173 c-41 -5 -241 -32 -290 -39 -22 -3 -94 -19 -160 -35 -629
-155 -1183 -520 -1569 -1034 -268 -358 -432 -730 -521 -1180 -3 -17 -8 -48
-11 -70 -3 -22 -7 -51 -10 -65 -12 -67 -19 -212 -19 -370 0 -240 15 -388 59
-596 157 -739 640 -1412 1293 -1802 322 -193 666 -316 1038 -372 256 -39 701
-32 909 15 12 3 32 7 46 9 119 21 322 81 475 141 722 285 1290 853 1580 1580
71 178 136 418 161 590 3 22 7 51 10 65 12 67 19 212 19 370 0 224 -11 349
-46 530 -125 651 -484 1243 -1002 1658 -76 60 -99 77 -214 154 -326 217 -754
379 -1133 428 -41 6 -91 12 -110 15 -41 7 -461 13 -505 8z m500 -47 c17 -3 55
-8 85 -11 155 -19 371 -71 535 -128 867 -305 1522 -1010 1760 -1892 26 -95 27
-103 51 -230 30 -164 39 -273 39 -490 0 -191 -7 -283 -30 -431 -89 -560 -363
-1100 -760 -1499 -132 -132 -178 -172 -315 -275 -365 -273 -780 -448 -1221
-515 -173 -27 -225 -30 -449 -29 -222 1 -383 17 -550 54 -25 6 -56 12 -69 15
-138 26 -376 113 -576 211 -859 421 -1433 1246 -1532 2204 -10 98 -10 433 0
535 7 70 26 198 43 290 11 61 47 193 81 299 95 294 237 564 431 821 94 124
120 153 255 287 321 319 710 550 1151 683 66 19 135 38 155 41 20 3 39 8 42 9
13 9 255 46 331 51 46 4 85 8 87 10 5 4 418 -4 456 -10z"/>
<path d="M3313 5080 c-10 -11 -25 -20 -34 -20 -21 0 -35 -18 -41 -53 -6 -33
-6 -33 57 -41 50 -7 85 -32 85 -61 0 -8 -18 -35 -41 -61 -22 -26 -47 -57 -56
-70 -13 -20 -24 -24 -64 -24 -40 0 -51 4 -64 23 -14 22 -13 29 10 85 33 81 32
107 -6 144 -28 28 -34 30 -79 25 -60 -7 -93 -24 -143 -71 -21 -20 -58 -50 -83
-67 -50 -34 -55 -44 -19 -35 15 4 25 2 25 -4 0 -15 -28 -69 -55 -105 -12 -16
-28 -40 -34 -53 l-12 -23 31 16 c18 9 30 12 26 7 -5 -9 -76 -267 -76 -279 0
-3 6 -3 14 0 11 4 12 -1 6 -26 -4 -18 -24 -101 -44 -185 -20 -84 -36 -157 -36
-163 0 -22 64 36 79 73 9 21 20 38 24 38 5 0 5 -5 2 -10 -4 -6 -10 -24 -15
-40 -7 -24 -6 -28 8 -23 10 3 24 11 32 18 8 6 28 16 43 23 15 6 30 18 33 26 3
7 13 12 23 9 10 -2 31 6 47 20 16 13 39 30 52 36 13 7 34 35 47 62 12 28 26
49 30 48 14 -3 64 52 82 91 25 54 40 50 34 -10 -2 -21 28 17 41 53 14 37 22
34 38 -12 15 -46 7 -147 -20 -251 -5 -19 -12 -50 -15 -69 l-6 -34 26 17 c15
10 28 16 30 14 2 -2 -6 -28 -18 -58 l-22 -55 -50 0 c-61 0 -75 -8 -75 -44 0
-32 -38 -64 -77 -66 -11 0 -29 -11 -40 -23 -10 -13 -29 -28 -43 -35 -34 -17
-38 -61 -10 -99 33 -44 19 -43 -25 2 -26 26 -48 40 -65 40 -14 0 -79 -18 -145
-40 l-120 -39 -15 22 c-8 12 -30 37 -50 55 -19 18 -60 57 -90 86 -30 29 -82
71 -115 92 -74 49 -94 64 -106 86 -8 16 -5 17 33 12 24 -3 63 -18 87 -32 86
-53 85 -53 101 -36 12 12 13 18 1 36 -12 19 -11 20 14 16 31 -6 55 14 55 47 0
46 -21 72 -79 99 -55 25 -141 96 -141 117 0 5 14 15 32 21 l31 11 -43 20 c-23
11 -45 29 -48 39 -3 12 -14 18 -33 18 -16 0 -32 7 -38 18 -10 16 -12 15 -32
-8 -20 -24 -20 -24 -14 -2 9 30 -15 29 -54 -4 -24 -20 -34 -23 -50 -15 -28 15
-61 13 -97 -7 -32 -17 -93 -82 -77 -82 4 0 -11 -18 -34 -39 -23 -22 -45 -52
-49 -68 -4 -15 -13 -37 -20 -48 -7 -11 -16 -48 -20 -83 -5 -51 -4 -65 9 -75 9
-7 19 -31 22 -54 3 -24 13 -60 22 -80 9 -21 17 -41 17 -45 1 -3 4 -10 9 -14
13 -13 7 -32 -19 -63 l-26 -31 39 6 c21 3 46 13 55 21 16 14 18 13 24 -13 8
-32 11 -61 13 -119 l2 -40 29 33 30 32 1 -37 c1 -37 1 -38 11 -10 5 15 13 27
18 27 9 0 -6 -83 -20 -110 -18 -33 5 -23 44 20 23 25 36 50 36 67 0 48 23 8
25 -44 4 -95 -20 -175 -109 -368 -23 -49 -49 -106 -56 -125 -39 -96 -86 -155
-116 -143 -19 7 -11 50 31 153 84 211 88 292 17 345 -46 34 -132 27 -216 -18
-38 -20 -78 -37 -90 -37 -19 0 -18 -2 8 -24 l30 -23 -23 -34 c-13 -19 -42 -51
-65 -72 l-41 -38 43 7 43 7 -16 -39 c-9 -21 -20 -50 -25 -64 -28 -93 -69 -141
-113 -134 -14 2 -17 -3 -15 -19 5 -33 44 -47 103 -37 63 12 99 51 170 182 38
70 56 94 73 96 12 2 23 -1 23 -7 1 -6 2 -17 3 -23 1 -7 -1 -23 -6 -36 -7 -21
-17 -86 -23 -147 -2 -25 22 -87 38 -97 18 -11 75 -10 100 3 29 15 73 66 88
102 l12 28 24 -42 c13 -23 37 -57 53 -76 42 -47 40 -86 -6 -129 -19 -19 -39
-34 -43 -34 -5 0 -7 -60 -6 -132 1 -73 -3 -162 -8 -197 -10 -57 -9 -64 7 -77
11 -7 23 -11 29 -7 27 16 -3 -19 -32 -39 -41 -27 -75 -80 -67 -105 3 -10 28
-42 55 -72 27 -29 63 -82 81 -117 18 -35 42 -71 53 -79 28 -19 84 -19 142 0
53 19 53 19 107 -66 46 -72 77 -96 120 -93 18 1 89 16 158 33 69 17 142 34
162 39 29 7 49 4 90 -11 63 -23 211 -66 253 -72 170 -27 330 -27 485 0 71 13
190 46 237 66 59 25 97 22 273 -22 69 -18 140 -32 157 -32 46 0 78 25 120 91
50 80 54 83 116 66 109 -29 136 -17 188 81 17 33 51 80 74 105 24 25 47 54 52
65 21 42 -12 98 -83 141 -18 11 -17 13 10 23 28 11 28 12 20 69 -4 31 -8 119
-8 194 l-1 136 -42 40 c-59 54 -57 78 12 170 l54 72 25 -43 c37 -62 77 -89
128 -85 77 6 98 70 68 208 -19 89 -16 112 13 108 14 -2 35 -29 69 -92 64 -118
110 -174 151 -181 65 -12 87 -12 107 2 25 18 27 52 3 49 -49 -8 -74 26 -127
168 l-26 69 42 -7 43 -6 -33 26 c-17 14 -46 46 -63 71 l-32 45 29 24 c27 22
28 23 7 24 -11 0 -56 18 -98 39 -87 45 -138 50 -195 21 -87 -44 -84 -133 12
-365 34 -83 42 -131 24 -138 -31 -12 -87 58 -120 148 -8 22 -37 88 -65 147
-28 59 -60 136 -71 171 -25 76 -33 199 -15 223 10 15 13 13 19 -17 3 -18 21
-48 38 -66 36 -37 54 -43 38 -13 -14 27 -29 110 -20 110 5 0 13 -12 18 -27 10
-26 11 -25 12 17 1 34 3 40 9 25 5 -11 18 -29 30 -39 l21 -19 1 39 c0 44 6 89
13 120 6 22 6 22 43 3 20 -10 46 -19 56 -19 17 0 16 3 -7 31 -14 17 -26 34
-26 39 0 4 11 32 24 63 14 30 27 74 31 98 3 24 13 49 22 56 13 10 15 24 9 69
-4 32 -13 71 -20 88 -8 17 -19 45 -25 62 -7 17 -25 41 -42 53 -16 12 -29 27
-29 34 0 7 -19 32 -41 55 -46 46 -88 59 -133 42 -24 -9 -32 -8 -50 9 -12 10
-32 22 -44 26 -22 6 -23 5 -17 -17 6 -21 5 -21 -18 6 -23 29 -24 29 -29 8 -5
-18 -14 -22 -45 -22 -25 0 -33 -3 -25 -9 11 -6 7 -13 -15 -28 -15 -11 -39 -24
-53 -28 -25 -8 -25 -8 12 -25 l37 -16 -45 -46 c-25 -26 -71 -58 -102 -73 -66
-31 -81 -49 -82 -92 0 -42 23 -65 58 -57 22 5 25 4 15 -7 -18 -19 -16 -37 6
-48 15 -8 28 -4 62 23 47 35 136 63 151 48 10 -10 -36 -50 -117 -101 -27 -17
-73 -55 -101 -84 -28 -28 -68 -68 -90 -87 -22 -19 -46 -45 -54 -57 l-15 -21
-120 39 c-143 47 -168 46 -220 -8 -26 -27 -32 -30 -20 -12 8 15 18 36 20 49 4
21 0 26 -70 90 -11 9 -44 28 -72 41 -54 25 -69 51 -36 64 10 3 53 6 96 6 77 0
107 5 107 18 0 3 -10 17 -23 31 -92 102 -149 183 -181 259 -35 83 -36 95 -18
156 9 27 10 28 17 10 19 -55 82 -135 105 -135 4 0 10 -10 14 -23 6 -26 75
-108 76 -90 0 6 13 -2 29 -18 16 -16 38 -29 49 -29 11 0 25 -7 32 -14 11 -14
89 -56 103 -56 4 0 7 7 7 16 0 10 9 5 26 -15 14 -18 35 -36 46 -42 19 -10 20
-8 13 23 -3 18 -10 44 -15 58 -5 14 -11 39 -14 55 -2 17 -16 76 -30 132 -30
119 -30 114 -12 107 10 -4 5 27 -19 119 -18 69 -36 135 -40 147 -6 20 -5 21
15 10 12 -6 24 -10 26 -7 3 2 -19 41 -49 85 l-54 81 26 3 26 3 -35 31 c-141
127 -187 152 -255 140 -74 -14 -95 -76 -55 -165 23 -50 25 -84 8 -99 -7 -5
-37 -12 -66 -13 l-53 -4 7 30 c13 60 12 147 -3 191 -15 43 -14 45 9 64 17 14
19 20 8 21 -52 4 -82 10 -139 28 -79 26 -87 26 -108 1z m121 -966 c2 -27 5
-59 5 -72 1 -13 6 -20 11 -17 6 3 10 3 10 -2 -1 -22 -20 -29 -77 -29 l-62 1 6
30 c7 34 22 67 23 48 0 -7 4 -13 9 -13 10 0 51 92 51 117 1 36 19 -12 24 -63z
m121 -96 c5 -21 3 -29 -9 -34 -9 -4 -19 -5 -21 -2 -10 10 -12 54 -2 66 13 16
23 6 32 -30z m-110 -238 c0 -1 53 -14 145 -36 14 -3 37 -13 53 -23 26 -16 16
-17 -278 -17 -168 0 -305 4 -305 8 0 4 8 8 18 8 10 0 27 8 38 18 10 10 31 18
46 20 15 1 42 8 60 15 22 9 66 13 128 12 52 -2 95 -4 95 -5z m-647 -215 c0
-36 -2 -65 -4 -65 -7 0 -86 41 -113 59 l-24 15 59 27 c32 15 64 28 70 28 7 1
12 -22 12 -64z m1247 36 l60 -27 -45 -27 c-25 -14 -57 -30 -72 -36 l-28 -10 1
64 c1 42 5 65 13 64 6 0 38 -13 71 -28z m-1431 -186 c65 -14 125 -37 140 -54
15 -16 17 -29 11 -68 -8 -56 -27 -105 -53 -138 l-19 -24 -13 25 c-17 30 -75
47 -142 42 -26 -3 -48 -2 -48 2 0 4 15 40 34 81 47 105 51 123 23 138 -20 10
-18 11 13 6 19 -4 43 -8 54 -10z m1601 3 c-11 -6 -21 -12 -23 -13 -4 -3 35
-111 57 -154 13 -24 20 -45 17 -48 -3 -3 -29 -5 -58 -5 -70 1 -112 -13 -128
-43 l-13 -24 -19 24 c-26 34 -45 82 -53 139 -7 45 -6 50 20 72 16 13 31 24 34
25 3 0 38 8 76 19 39 10 79 18 90 19 l20 0 -20 -11z m-1345 -588 c15 -47 32
-94 36 -105 7 -17 5 -18 -7 -8 -9 7 -57 13 -127 14 -151 2 -151 2 -123 115 26
106 29 121 30 154 1 20 11 30 50 47 26 13 54 30 61 39 12 13 16 2 32 -78 11
-51 32 -131 48 -178z m1168 214 c29 -13 42 -25 43 -39 1 -31 7 -62 30 -159 28
-113 27 -113 -118 -115 -58 -1 -115 -7 -126 -13 -16 -8 -19 -7 -15 3 3 8 19
55 36 104 32 92 35 104 55 212 11 63 11 63 32 44 11 -11 39 -27 63 -37z
m-1617 -114 c10 0 33 -13 50 -28 35 -31 38 -55 28 -194 -6 -83 9 -95 93 -78
57 13 128 15 246 8 35 -3 44 -7 48 -25 7 -28 -4 -49 -19 -34 -7 7 -14 7 -24 0
-9 -9 -17 -8 -28 1 -12 10 -16 9 -21 -4 -5 -12 -10 -13 -26 -5 -11 6 -22 8
-25 5 -3 -3 -14 -1 -24 4 -11 7 -20 7 -24 0 -3 -5 -12 -7 -19 -4 -7 3 -16 -2
-20 -11 -4 -12 -10 -14 -25 -5 -27 14 -28 13 -35 -15 -4 -14 -11 -22 -19 -19
-7 2 -19 -7 -27 -21 -16 -30 -26 -31 -71 -8 -42 21 -99 25 -99 6 0 -16 -5 -16
-31 -3 -15 9 -21 7 -26 -5 -4 -12 -13 -15 -29 -11 -16 4 -23 2 -22 -5 4 -15
-39 -22 -48 -8 -4 7 -12 -1 -20 -20 -9 -21 -18 -29 -28 -25 -12 5 -15 -1 -12
-28 3 -37 -17 -63 -50 -64 -20 0 -21 5 -19 65 1 36 5 82 10 101 18 84 106 232
203 342 28 32 53 67 57 78 4 14 12 19 22 16 8 -3 23 -6 34 -6z m1988 -32 c16
-24 37 -52 48 -63 122 -131 202 -294 208 -421 3 -66 -1 -79 -25 -79 -17 0 -46
25 -47 40 -1 56 -4 69 -12 56 -7 -11 -13 -6 -26 19 -10 20 -20 28 -24 22 -8
-13 -51 -4 -51 10 0 5 -5 6 -11 3 -5 -4 -19 1 -29 10 -12 11 -20 13 -25 6 -9
-16 -35 -13 -35 4 0 19 -53 14 -97 -8 -42 -22 -49 -21 -75 8 -11 13 -25 22
-29 19 -5 -3 -11 7 -15 21 -7 28 -8 29 -34 15 -13 -7 -19 -6 -24 5 -3 8 -12
12 -20 9 -8 -3 -17 0 -21 5 -3 6 -11 8 -18 4 -17 -11 -126 -12 -133 -1 -3 5
-11 5 -19 -2 -17 -14 -29 3 -20 30 5 15 15 20 45 20 21 0 41 4 45 9 5 9 127 6
175 -4 81 -18 97 -17 112 4 11 15 14 36 9 74 -12 115 -8 155 20 183 15 14 42
30 60 34 19 4 35 8 36 9 1 1 15 -18 32 -41z"/>
<path d="M4920 6078 c-36 -28 -89 -72 -118 -96 l-54 -45 32 -20 c28 -18 32
-18 49 -3 23 21 29 20 76 -12 32 -22 39 -32 37 -54 -2 -20 4 -31 23 -44 26
-17 37 -14 41 9 1 7 14 69 28 138 14 70 26 130 26 135 0 9 -55 44 -68 44 -4 0
-36 -23 -72 -52z m50 -97 c-6 -23 -13 -41 -16 -41 -2 0 -16 7 -30 16 l-24 17
37 32 c43 38 49 33 33 -24z"/>
<path d="M1585 6015 c-67 -32 -100 -85 -92 -151 15 -139 186 -185 269 -73 45
60 38 135 -18 193 -44 46 -103 57 -159 31z m109 -86 c41 -48 34 -99 -16 -125
-38 -20 -82 -4 -103 37 -21 40 -18 66 10 94 35 35 76 33 109 -6z"/>
<path d="M5196 5981 c-22 -24 -20 -33 13 -55 l28 -19 -69 -90 c-37 -49 -68
-93 -68 -97 0 -10 35 -40 46 -40 5 0 38 39 73 86 35 47 68 87 71 89 4 3 20 -5
35 -17 l27 -21 21 21 c11 12 19 23 16 25 -174 134 -177 136 -193 118z"/>
<path d="M5433 5796 c-4 -8 -37 -47 -73 -87 -106 -118 -103 -113 -81 -138 25
-28 33 -27 66 12 16 17 57 65 93 105 l65 73 -23 24 c-27 29 -36 31 -47 11z"/>
<path d="M1257 5762 l-27 -28 20 -59 c11 -32 19 -60 17 -61 -2 -2 -30 8 -63
21 l-59 24 -27 -26 c-15 -15 -26 -29 -23 -32 3 -2 49 -20 103 -38 74 -25 105
-42 131 -69 l34 -36 25 26 25 25 -36 40 c-20 22 -39 55 -42 73 -4 18 -16 64
-28 101 l-22 68 -28 -29z"/>
<path d="M5520 5643 c-86 -33 -130 -137 -88 -213 50 -92 162 -111 236 -41 79
76 55 205 -47 247 -34 14 -74 17 -101 7z m105 -89 c32 -35 31 -66 -2 -104 -38
-42 -87 -44 -120 -6 -27 32 -29 48 -6 86 32 54 90 65 128 24z"/>
<path d="M1005 5498 c-21 -12 -89 -83 -105 -109 -7 -12 11 -33 87 -100 121
-105 120 -105 144 -83 27 24 24 39 -16 70 -59 45 -42 52 70 29 26 -6 34 -2 53
24 l22 30 -38 6 c-78 13 -84 18 -87 60 -4 66 -73 105 -130 73z m64 -75 c7 -13
5 -26 -7 -45 -20 -34 -29 -35 -59 -6 l-23 22 22 23 c26 27 53 30 67 6z"/>
<path d="M5725 5334 c-60 -46 -111 -89 -113 -94 -2 -5 5 -20 15 -33 l18 -24
60 45 c33 25 66 50 73 55 7 5 -4 -36 -23 -92 l-36 -102 21 -29 21 -30 115 86
c62 48 114 90 114 94 0 4 -8 18 -19 31 -21 26 -16 28 -113 -46 l-47 -36 34
102 35 102 -21 28 c-11 16 -21 29 -22 28 -1 0 -51 -38 -112 -85z"/>
<path d="M770 5218 l-63 -91 23 -19 c23 -18 23 -18 41 12 10 16 22 30 26 30 5
0 48 -30 97 -65 93 -67 103 -68 126 -25 8 14 -7 29 -86 85 l-94 67 20 33 c20
33 19 38 -16 58 -6 3 -38 -34 -74 -85z"/>
<path d="M5983 5088 c-33 -16 -46 -66 -32 -122 14 -56 0 -83 -33 -65 -16 8
-19 17 -14 40 5 28 -16 79 -33 79 -14 0 -39 -56 -36 -82 7 -61 69 -124 115
-115 66 13 84 45 68 125 -8 39 -8 55 2 67 17 20 23 19 38 -6 10 -15 10 -25 3
-32 -12 -12 17 -67 36 -67 32 0 43 72 18 120 -31 59 -82 82 -132 58z"/>
<path d="M648 5006 c-40 -27 -67 -80 -61 -121 5 -35 8 -39 47 -59 35 -18 64
-9 114 35 40 35 67 35 67 -1 0 -17 -7 -26 -23 -30 -29 -7 -66 -61 -49 -72 36
-22 116 26 135 81 18 52 -8 114 -53 125 -28 7 -53 -3 -107 -47 -42 -33 -71
-31 -66 5 2 15 11 24 26 26 20 3 60 58 49 68 -14 14 -50 10 -79 -10z"/>
<path d="M499 4758 l-15 -31 129 -64 c71 -35 130 -62 131 -61 1 2 10 16 20 31
10 16 16 30 14 31 -12 7 -259 126 -261 126 -2 0 -10 -14 -18 -32z"/>
<path d="M5965 4743 c-11 -2 -32 -9 -47 -15 -23 -8 -26 -14 -18 -29 7 -12 19
-17 38 -15 15 2 44 4 65 5 l38 1 -16 30 c-15 30 -21 32 -60 23z"/>
<path d="M434 4609 c-8 -17 -12 -35 -7 -39 4 -4 37 -17 73 -30 85 -30 90 -36
38 -46 -23 -4 -45 -8 -48 -9 -3 -1 -23 -5 -45 -10 -57 -11 -72 -21 -83 -54
-11 -30 -10 -30 46 -52 159 -61 208 -79 214 -79 6 0 31 62 26 65 -2 1 -38 15
-80 30 -43 16 -72 32 -65 36 6 3 52 14 101 24 82 17 89 20 101 49 8 17 10 34
7 38 -4 4 -56 26 -116 48 -61 23 -118 46 -128 51 -14 8 -20 3 -34 -22z"/>
<path d="M6180 4559 c-109 -45 -115 -49 -113 -75 1 -15 6 -31 10 -35 7 -7 252
87 268 102 10 11 -18 59 -34 58 -9 -1 -68 -23 -131 -50z"/>
<path d="M6322 4441 c-29 -10 -89 -29 -132 -41 -81 -23 -85 -27 -74 -67 8 -28
19 -28 95 -3 34 12 65 20 70 18 4 -2 -15 -30 -42 -63 -79 -94 -81 -97 -68
-134 9 -26 15 -30 33 -25 11 4 73 24 136 44 112 35 115 37 113 64 -1 16 -5 31
-8 34 -3 3 -40 -4 -81 -16 -79 -23 -97 -23 -73 1 17 16 84 97 103 122 10 14
11 26 3 52 -6 18 -13 33 -16 32 -3 0 -30 -9 -59 -18z"/>
<path d="M311 4269 c-6 -18 -9 -34 -7 -37 7 -6 278 -84 281 -80 1 2 6 17 10
35 6 32 6 32 -52 48 -32 9 -65 19 -73 22 -8 3 -37 11 -65 18 -27 8 -57 16 -66
20 -12 5 -20 -2 -28 -26z"/>
<path d="M276 4118 c-20 -65 -21 -63 75 -123 49 -32 88 -59 86 -61 -2 -2 -48
-13 -102 -24 -54 -11 -100 -22 -102 -24 -2 -1 -6 -21 -9 -42 l-5 -40 138 -26
c76 -14 141 -23 145 -20 11 11 14 67 3 68 -10 1 -104 17 -117 20 -5 1 -14 3
-20 4 -17 3 44 17 107 25 28 4 51 8 52 9 2 1 5 16 9 32 5 28 2 32 -70 74 -41
24 -74 45 -73 46 1 1 25 -2 52 -7 118 -23 112 -23 118 13 2 18 4 34 2 36 -3 3
-35 10 -85 18 -19 3 -66 12 -103 20 -84 17 -97 17 -101 2z"/>
<path d="M6345 4079 c-154 -29 -146 -25 -139 -57 10 -39 15 -42 62 -31 23 5
59 12 80 15 l37 6 -72 -74 c-52 -52 -73 -81 -73 -98 0 -49 6 -50 150 -23 74
14 138 29 142 32 10 9 -7 66 -18 64 -21 -3 -72 -12 -114 -18 l-45 -7 73 74
c63 64 73 79 69 104 -5 37 -21 38 -152 13z"/>
<path d="M6360 3732 c-85 -39 -117 -124 -77 -204 40 -77 111 -105 190 -74 150
57 104 288 -58 285 -22 0 -47 -3 -55 -7z m115 -87 c35 -34 33 -76 -5 -108 -29
-25 -49 -27 -101 -11 -23 7 -42 55 -33 88 13 54 97 73 139 31z"/>
<path d="M430 3544 l0 -46 -119 5 -119 4 -4 -29 c-3 -15 0 -32 6 -36 6 -5 43
-9 81 -11 39 -1 100 -3 138 -5 66 -3 67 -3 68 23 0 14 2 52 4 84 l4 57 -30 0
c-28 0 -29 -2 -29 -46z"/>
<path d="M6475 3350 c-49 -15 -115 -35 -146 -44 l-57 -17 2 -46 1 -45 140 -58
140 -58 5 37 5 36 -102 40 c-57 22 -103 43 -103 46 0 3 47 18 104 34 99 26
104 28 108 56 3 16 2 32 -1 37 -3 5 -46 -4 -96 -18z"/>
<path d="M340 3312 c-74 -31 -138 -61 -142 -67 -6 -9 -3 -74 4 -80 6 -5 276
-85 286 -85 6 0 9 8 7 18 -2 9 -4 25 -4 34 -1 10 -12 20 -26 24 -20 5 -25 13
-26 40 -1 19 -2 44 -3 57 -1 15 7 26 25 33 20 9 25 18 24 43 -1 17 -3 33 -6
35 -2 2 -65 -21 -139 -52z m40 -97 l0 -34 -47 14 c-27 8 -50 15 -53 15 -6 1
82 39 93 39 4 1 7 -15 7 -34z"/>
<path d="M6260 3048 c0 -7 -3 -23 -6 -35 -5 -18 0 -25 20 -34 24 -11 26 -16
19 -48 -4 -20 -7 -44 -7 -54 0 -11 -10 -20 -26 -24 -30 -7 -40 -20 -40 -54 l0
-27 73 14 c39 8 83 16 97 19 142 26 137 23 142 74 3 34 3 34 -127 107 -71 40
-133 73 -137 74 -5 0 -8 -6 -8 -12z m173 -158 c5 -4 -12 -11 -38 -15 -26 -3
-49 -4 -52 -1 -3 2 -2 19 2 36 l7 31 36 -22 c21 -12 41 -25 45 -29z"/>
<path d="M446 2988 c-40 -35 -49 -39 -57 -26 -12 22 -64 41 -92 35 -46 -12
-67 -44 -66 -100 0 -29 3 -70 7 -92 8 -39 9 -40 47 -38 22 1 88 10 146 19 88
13 106 19 104 33 -2 9 -4 24 -4 35 -1 16 -7 18 -55 12 -34 -5 -56 -3 -61 3 -3
6 -2 11 3 11 5 0 25 13 43 30 19 16 38 30 42 30 4 0 7 20 6 45 -2 25 -5 45 -8
45 -3 -1 -28 -19 -55 -42z m-99 -70 c6 -7 13 -25 17 -39 5 -22 2 -28 -17 -33
-47 -12 -57 -8 -57 27 0 48 34 75 57 45z"/>
<path d="M522 2732 c-22 -3 -23 -7 -17 -40 14 -65 12 -75 -17 -83 -25 -7 -27
-4 -38 41 -11 48 -12 48 -41 38 -24 -8 -27 -13 -19 -29 6 -10 8 -19 6 -19 -3
0 -1 -11 4 -25 8 -22 6 -26 -16 -31 -31 -8 -36 -3 -50 49 -9 37 -13 42 -35 39
-13 -2 -26 -6 -28 -8 -4 -4 36 -165 43 -171 1 -1 66 13 143 33 l140 36 -20 82
c-11 44 -23 83 -26 87 -3 3 -17 3 -29 1z"/>
<path d="M6426 2635 c-4 -19 -8 -35 -9 -35 -1 0 -51 13 -112 30 -60 16 -113
26 -117 22 -4 -4 -9 -19 -13 -33 -6 -25 -4 -26 92 -53 54 -15 105 -30 114 -32
14 -4 15 -10 6 -39 -12 -40 -10 -44 23 -47 22 -3 26 4 53 101 23 84 26 105 15
112 -28 18 -46 9 -52 -26z"/>
<path d="M500 2461 c-69 -17 -120 -75 -120 -135 0 -28 36 -146 49 -159 4 -4
67 14 140 40 132 47 133 48 127 76 -3 15 -18 54 -33 85 -37 76 -96 110 -163
93z m81 -84 c17 -13 39 -50 39 -65 0 -15 -150 -66 -161 -55 -5 5 -10 27 -11
48 -1 30 4 43 26 62 30 25 81 30 107 10z"/>
<path d="M6121 2428 c-6 -17 -10 -32 -9 -33 4 -3 268 -95 273 -95 4 0 26 63
23 65 -2 1 -32 13 -68 25 -36 12 -94 33 -129 46 -35 13 -67 24 -71 24 -5 0
-13 -14 -19 -32z"/>
<path d="M6094 2276 c-58 -26 -97 -112 -80 -179 8 -33 55 -84 89 -97 101 -37
206 38 207 146 0 104 -116 173 -216 130z m105 -70 c42 -22 55 -60 35 -101 -19
-41 -57 -52 -107 -32 -45 19 -62 62 -41 103 9 16 21 32 27 36 19 12 55 9 86
-6z"/>
<path d="M698 2180 c-15 -9 -14 -14 7 -57 l23 -48 -22 -12 c-31 -18 -34 -17
-56 27 -22 44 -27 46 -54 27 -18 -13 -17 -15 3 -55 21 -41 21 -41 2 -52 -31
-16 -36 -13 -59 35 -24 49 -29 52 -56 32 -17 -13 -16 -17 19 -88 21 -41 39
-76 41 -78 3 -4 264 120 264 126 0 14 -77 153 -85 153 -5 0 -17 -5 -27 -10z"/>
<path d="M5917 1980 l-18 -29 38 -24 c21 -13 52 -32 70 -42 18 -10 30 -22 28
-26 -3 -3 -46 -7 -96 -8 -51 -1 -96 -4 -101 -7 -4 -3 -14 -17 -22 -32 l-14
-28 118 -72 c66 -40 124 -72 129 -72 6 0 17 13 25 28 l15 28 -74 44 c-41 24
-73 45 -72 46 1 1 48 4 105 7 56 2 104 6 105 8 2 2 10 16 20 30 l16 27 -125
76 c-69 42 -126 76 -128 76 -1 0 -10 -13 -19 -30z"/>
<path d="M719 1878 c-16 -11 -15 -15 7 -49 l23 -37 -25 -17 c-14 -9 -26 -15
-27 -13 -1 2 -11 17 -23 33 -11 17 -23 38 -27 48 -8 20 -16 21 -41 2 -18 -13
-16 -18 29 -95 26 -44 50 -80 54 -78 36 16 241 143 241 150 0 5 -7 19 -16 33
l-15 24 -51 -30 c-28 -17 -52 -29 -53 -27 -1 2 -10 18 -19 36 -17 34 -30 38
-57 20z"/>
<path d="M1024 1373 c-21 -23 -25 -35 -20 -63 11 -68 80 -92 131 -44 23 22 27
31 22 62 -12 72 -86 96 -133 45z"/>
<path d="M5604 1373 c-70 -75 39 -181 111 -108 50 49 15 135 -55 135 -21 0
-39 -9 -56 -27z"/>
<path d="M5305 1176 l-29 -24 15 -65 16 -66 -59 30 -59 30 -29 -21 c-30 -21
-39 -40 -20 -40 5 0 49 -18 98 -41 65 -30 97 -50 118 -79 l29 -38 28 22 28 22
-31 42 c-28 39 -39 74 -56 181 -3 19 -9 42 -12 52 -7 17 -9 17 -37 -5z"/>
<path d="M1460 1132 c-22 -8 -50 -43 -50 -63 0 -12 -6 -17 -18 -14 -32 6 -78
-21 -92 -55 -12 -29 -11 -37 6 -69 22 -41 76 -81 110 -81 16 0 25 -7 30 -24 3
-13 19 -33 36 -46 l30 -22 -7 49 -6 49 40 19 c23 10 41 21 41 25 0 12 -52 35
-74 32 -17 -2 -22 2 -22 20 -1 13 -4 38 -7 57 -7 42 0 61 24 61 12 0 19 -7 19
-19 0 -24 40 -55 53 -42 5 5 10 21 10 36 0 50 -75 104 -123 87z m-36 -173 c4
-23 5 -44 2 -46 -11 -12 -48 11 -57 35 -8 21 -7 29 7 39 30 22 41 15 48 -28z"/>
<path d="M5066 997 l-29 -23 12 -65 c6 -35 15 -83 20 -105 l8 -41 -90 63 c-87
61 -90 63 -118 49 -15 -8 -31 -20 -34 -26 -4 -5 25 -60 64 -120 39 -61 71
-115 71 -120 0 -15 23 -10 49 10 l24 18 -35 54 c-53 84 -53 83 -37 74 8 -5 40
-28 71 -52 56 -42 58 -43 82 -28 14 9 23 22 21 28 -2 7 -7 28 -10 47 -3 19 -9
52 -14 73 -5 20 -7 37 -5 37 2 0 22 -29 45 -65 22 -36 44 -65 49 -65 4 0 18 8
31 18 l22 19 -75 118 c-41 66 -79 120 -84 122 -5 2 -22 -7 -38 -20z"/>
<path d="M1767 893 c-13 -21 -38 -65 -57 -98 -18 -33 -41 -74 -51 -91 l-19
-31 75 -38 c108 -55 178 -45 226 31 43 70 21 163 -47 204 -19 11 -50 29 -69
41 l-34 20 -24 -38z m122 -118 c14 -53 -37 -120 -86 -111 -26 5 -63 24 -63 33
0 7 59 112 73 130 15 20 66 -15 76 -52z"/>
<path d="M4684 779 c-36 -10 -82 -53 -95 -87 -35 -91 31 -198 128 -206 79 -6
163 67 163 142 0 48 -33 114 -67 134 -37 22 -91 29 -129 17z m89 -79 c28 -22
42 -68 32 -100 -7 -21 -53 -50 -79 -50 -28 0 -66 44 -73 82 -4 30 -1 41 20 62
31 31 65 33 100 6z"/>
<path d="M1997 666 c-74 -154 -74 -151 -37 -166 17 -7 32 -11 34 -9 9 12 107
226 112 245 5 19 1 26 -21 34 -14 5 -28 10 -30 10 -1 0 -28 -51 -58 -114z"/>
<path d="M2185 685 c-66 -29 -102 -93 -92 -167 16 -119 189 -164 258 -68 35
49 30 61 -39 88 -67 25 -92 24 -92 -6 0 -12 12 -22 35 -31 38 -13 44 -25 19
-35 -32 -12 -66 -5 -90 20 -22 21 -25 31 -19 62 8 44 27 68 61 76 28 7 84 -18
84 -37 0 -11 52 -37 73 -37 7 0 2 38 -9 65 -23 58 -128 97 -189 70z"/>
<path d="M4463 680 c-28 -12 -28 -12 2 -96 14 -38 25 -73 25 -77 0 -4 -38 21
-84 57 -79 63 -85 65 -115 55 -17 -6 -31 -16 -31 -23 0 -13 88 -257 95 -265 3
-2 18 2 35 9 22 9 29 17 24 29 -3 9 -17 46 -29 83 l-24 68 88 -65 c85 -62 89
-64 120 -52 17 6 30 16 28 22 -2 5 -24 67 -48 137 -24 71 -48 128 -54 127 -5
0 -20 -4 -32 -9z"/>
<path d="M2435 532 c-15 -48 -34 -111 -42 -139 -9 -29 -14 -55 -12 -58 3 -3
19 -7 35 -11 l30 -6 41 138 c23 76 41 140 39 141 -2 2 -17 8 -34 13 l-31 8
-26 -86z"/>
<path d="M2559 562 c-11 -29 1 -42 38 -42 12 0 24 -4 27 -8 3 -5 -8 -58 -23
-119 l-28 -111 21 -6 c47 -13 53 -8 66 57 17 82 16 76 29 124 l11 41 36 -10
c41 -11 41 -11 46 22 3 27 9 24 -135 58 l-79 19 -9 -25z"/>
<path d="M4050 555 c-68 -29 -105 -122 -76 -189 40 -94 138 -124 222 -70 117
76 72 258 -67 270 -26 2 -59 -2 -79 -11z m120 -83 c20 -25 26 -66 14 -97 -11
-29 -58 -46 -93 -34 -38 14 -51 35 -51 88 0 35 5 44 30 60 38 23 74 17 100
-17z"/>
<path d="M2881 476 c-11 -23 -43 -83 -71 -135 -27 -52 -49 -96 -47 -98 2 -1
18 -6 35 -9 27 -5 33 -3 43 19 12 27 8 27 107 13 10 -2 18 -14 20 -29 3 -21
10 -28 38 -33 19 -3 37 -5 39 -3 2 3 -3 35 -11 72 -7 37 -16 80 -19 95 -3 15
-11 52 -18 82 -12 54 -13 55 -54 61 -40 5 -42 4 -62 -35z m65 -115 c6 -39 5
-44 -10 -38 -10 4 -26 7 -36 7 -16 0 -16 3 3 45 24 52 33 48 43 -14z"/>
<path d="M3732 495 c-79 -35 -103 -102 -71 -202 36 -112 228 -106 268 8 l11
31 -42 -7 c-23 -4 -49 -16 -57 -26 -46 -54 -121 -11 -121 70 0 58 59 89 113
59 20 -11 76 -12 86 -2 9 9 -31 53 -62 68 -42 20 -81 20 -125 1z"/>
<path d="M3119 473 c0 -10 -2 -38 -4 -63 -2 -25 -6 -84 -9 -132 l-4 -88 51 -1
c29 0 60 -2 71 -4 29 -6 46 5 46 31 0 22 -4 24 -46 24 l-47 0 7 120 c3 66 3
120 -1 121 -5 0 -20 3 -35 5 -22 4 -28 1 -29 -13z"/>
<path d="M3495 480 l-70 -5 0 -103 c0 -57 2 -123 3 -147 l4 -44 66 4 c37 2 77
4 90 4 17 1 22 7 22 30 l0 29 -55 -4 -55 -5 0 36 c0 35 0 35 45 35 43 0 45 1
45 28 0 28 -2 29 -47 28 -43 -1 -46 1 -50 27 -3 24 0 27 24 28 15 1 39 2 53 3
19 1 26 7 28 27 4 32 -8 36 -103 29z"/>
</g>
</svg>
