<?xml version="1.0" encoding="UTF-8"?>
<svg width="51px" height="80px" viewBox="0 0 51 80" version="1.1" xmlns="http://www.w3.org/2000/svg" xmlns:xlink="http://www.w3.org/1999/xlink">
    <title>Shape</title>
    <g id="Website-v3" stroke="none" stroke-width="1" fill="none" fill-rule="evenodd">
        <g id="Initiatives" transform="translate(-365, -764)" fill="#21903C" fill-rule="nonzero">
            <g id="Group-5" transform="translate(0, 639)">
                <g id="Infrastructure-card" transform="translate(120, 75)">
                    <path d="M258.848944,125.809942 C258.899398,128.524146 256.376691,130.572602 253.786713,129.855642 C252.77763,129.582515 251.886274,128.933837 251.331278,127.960821 L245.579508,117.855104 C244.368609,115.909071 245.142239,113.160726 247.093132,112.153569 C248.589937,111.385398 250.238106,111.504891 251.516277,112.529119 L262.195734,106.264258 C263.507541,105.496087 264.482988,105.922848 265.794795,106.281328 L265.525706,105.564368 L265.138892,105.564368 C263.843902,105.564368 263.036636,104.676704 262.700275,103.567124 L262.700275,103.567124 C262.380732,102.491685 262.515277,101.160188 263.154362,100.238383 C262.515277,99.3165777 262.363914,98.0021518 262.700275,96.909642 L262.700275,96.909642 C263.003,95.9366254 263.642086,95.1343134 264.651168,94.9465383 C262.599367,89.6888346 256.679416,83.5263962 255.888968,78.4223267 C254.358526,68.5043857 260.783018,59.5082498 271.025206,59.5082498 C281.267395,59.5082498 287.708705,68.5043857 286.161445,78.4223267 C285.370997,83.5434667 279.451046,89.5864118 277.399245,94.9465383 C279.551954,95.3562295 280.123768,98.4971953 278.89605,100.221312 C280.207858,102.081993 279.451046,105.547298 276.911521,105.547298 L276.524706,105.547298 C276.137891,106.588596 275.599714,108.329784 275.011083,109.166237 C276.020165,109.968549 276.692887,111.180552 276.726523,112.477907 L285.068272,107.595754 C290.080049,104.659634 293.914563,110.480663 289.155057,113.826474 L275.027901,123.727345 C274.388815,124.188247 273.682457,124.376023 272.908827,124.2736 L263.60845,123.266442 C263.356179,123.232301 263.154362,123.283513 262.935728,123.403006 L258.848944,125.809942 Z M250.709011,114.628786 C249.800836,113.194867 247.564037,113.467994 247.126768,115.192112 C246.992223,115.687155 247.042677,116.267551 247.311766,116.728454 L253.063537,126.83417 C253.71944,127.892539 254.812613,128.199807 255.87215,127.602341 C256.72987,127.107297 257.083049,125.792871 256.578508,124.922277 C256.56169,124.888137 256.528054,124.853996 256.511236,124.819855 L250.709011,114.628786 Z M274.456087,116.199269 C274.254271,116.318762 274.035636,116.369974 273.783365,116.318762 L265.811613,115.021407 C264.482988,114.799491 264.802531,112.768105 266.131156,112.972951 L273.716093,114.219095 C274.220635,113.860615 274.506541,113.433854 274.60745,113.007092 C274.926992,111.812159 273.951546,110.617227 272.723829,110.292888 L264.045719,107.937163 C263.726176,107.851811 263.473905,107.885952 263.204817,108.039586 L252.794448,114.150813 L258.260312,123.761486 L261.909827,121.610607 C262.498459,121.269198 263.137544,121.132634 263.810266,121.200916 L273.110644,122.208073 C273.379732,122.242214 273.632003,122.173932 273.850638,122.020298 L287.977794,112.119428 C290.651862,110.241676 288.717787,107.783529 286.077355,109.388153 L274.456087,116.199269 L274.456087,116.199269 Z M268.216593,106.912935 L273.110644,108.244432 C273.632003,107.81767 274.069272,106.298399 274.355179,105.547298 L267.72887,105.547298 L268.216593,106.912935 Z M269.730217,88.8523818 C269.730217,87.4867444 271.782018,87.4867444 271.782018,88.8523818 L271.782018,89.9278212 C271.782018,91.2934585 269.730217,91.2934585 269.730217,89.9278212 L269.730217,88.8523818 L269.730217,88.8523818 Z M265.693887,73.4718914 C265.693887,74.8375288 263.642086,74.8375288 263.642086,73.4718914 C263.642086,67.1046074 271.277477,63.8782893 275.71744,68.4019629 C276.995612,69.6993183 277.78606,71.4917173 277.78606,73.4718914 C277.78606,77.4834511 275.851985,79.0027226 274.052454,80.4366418 C272.740647,81.4779402 271.51293,82.4680273 271.731564,84.7213289 C271.849291,86.0869662 269.831125,86.2747413 269.696581,84.9261745 C269.377038,81.5291516 271.025206,80.2147257 272.791101,78.8149475 C274.220635,77.6882967 275.734258,76.4592231 275.734258,73.4718914 C275.734258,68.9482178 270.302031,66.6607753 267.157057,69.870023 C266.248882,70.7918282 265.693887,72.0550427 265.693887,73.4718914 L265.693887,73.4718914 Z M276.911521,96.9779238 L265.138892,96.9779238 C264.38208,96.9779238 264.38208,99.180014 265.138892,99.180014 L276.911521,99.180014 C277.668333,99.180014 277.668333,96.9779238 276.911521,96.9779238 L276.911521,96.9779238 Z M265.138892,103.464701 L276.911521,103.464701 C277.668333,103.464701 277.668333,101.262611 276.911521,101.262611 L265.138892,101.262611 C264.38208,101.262611 264.38208,103.464701 265.138892,103.464701 L265.138892,103.464701 Z M269.999306,51.024228 C269.999306,49.6585907 272.051107,49.6585907 272.051107,51.024228 L272.051107,55.9063814 C272.051107,57.2720187 269.999306,57.2720187 269.999306,55.9063814 L269.999306,51.024228 Z M247.27813,74.7863174 C245.932687,74.7863174 245.932687,72.7037205 247.27813,72.7037205 L252.08809,72.7037205 C253.433534,72.7037205 253.433534,74.7863174 252.08809,74.7863174 L247.27813,74.7863174 Z M253.904439,57.8353441 C252.94581,56.879398 254.392162,55.4113379 255.350791,56.367284 L258.748035,59.8155182 C259.689846,60.7885348 258.260312,62.256595 257.301684,61.2835784 L253.904439,57.8353441 Z M294.990917,72.7037205 C296.336361,72.7037205 296.336361,74.7863174 294.990917,74.7863174 L290.197775,74.7863174 C288.852332,74.7863174 288.852332,72.7037205 290.197775,72.7037205 L294.990917,72.7037205 Z M286.531442,56.5379887 C287.473252,55.5820425 288.936422,57.0501027 287.977794,58.0060488 L284.580549,61.454283 C283.638739,62.4102292 282.192387,60.9592395 283.134197,59.9862229 L286.531442,56.5379887 Z M262.296642,86.6844325 C264.096173,89.4327776 265.92934,92.2152637 266.803878,94.8953269 L275.229717,94.8953269 C277.130156,89.1255092 283.403286,82.7411548 284.126462,78.0979879 C285.471905,69.4774023 280.039677,61.5737763 271.008388,61.5737763 C261.977099,61.5737763 256.544872,69.4774023 257.890315,78.0979879 C258.293948,80.5732055 260.278477,83.5946781 262.296642,86.6844325 L262.296642,86.6844325 Z" id="Shape"></path>
                </g>
            </g>
        </g>
    </g>
</svg>